<svg width="50" height="50" viewBox="0 0 50 50" fill="none" xmlns="http://www.w3.org/2000/svg">
<rect x="1" y="1" width="48" height="48" rx="1" fill="white"/>
<rect x="1" y="1" width="48" height="48" rx="1" stroke="url(#paint0_linear_8528_5118)" stroke-width="2"/>
<g clip-path="url(#clip0_8528_5118)">
<path d="M18.4462 49.9578H18.7541V49.6803H18.4462V49.9578Z" fill="#1B1C1D"/>
<path d="M19.3084 49.0943H19.6164V48.786H19.3084V49.0943Z" fill="#1B1C1D"/>
<path d="M18.7541 48.786H19.0313V48.5084H18.7541V48.786Z" fill="#1B1C1D"/>
<path d="M17.5839 48.786H17.8919V48.5084H17.5839V48.786Z" fill="#1B1C1D"/>
<path d="M22.4803 48.5084H22.7882V48.2308H22.4803V48.5084Z" fill="#1B1C1D"/>
<path d="M21.0637 48.5084H21.3409V48.2308H21.0637V48.5084Z" fill="#1B1C1D"/>
<path d="M23.6506 47.9225H23.3734V47.645H23.0654V47.3674H22.7882V47.9225H22.2032V47.645H22.4803V47.3674H22.7882V47.059H23.0654V46.7815H23.3734V47.059H23.0654V47.3674H23.3734V47.645H23.6506V47.9225Z" fill="#1B1C1D"/>
<path d="M19.8936 47.9225H20.2015V47.6449H19.8936V47.9225Z" fill="#1B1C1D"/>
<path d="M17.5839 47.9226H17.3067V47.645H17.0296V47.3674H17.3067V47.645H17.5839V47.9226Z" fill="#1B1C1D"/>
<path d="M19.3084 47.645H19.6164V47.3674H19.3084V47.645Z" fill="#1B1C1D"/>
<path d="M20.7558 47.3674H21.0637V47.059H20.7558V47.3674Z" fill="#1B1C1D"/>
<path d="M21.3409 47.059H21.618V46.7815H21.3409V47.059Z" fill="#1B1C1D"/>
<path d="M22.2032 46.7815H22.4803V46.5039H22.2032V46.7815Z" fill="#1B1C1D"/>
<path d="M20.4787 46.7816H20.2015V46.504H19.8936V46.1956H19.6164V45.9181H19.8936V46.1956H20.2015V46.504H20.4787V46.7816Z" fill="#1B1C1D"/>
<path d="M18.7541 46.7815H19.0313V46.5039H18.7541V46.7815Z" fill="#1B1C1D"/>
<path d="M23.3734 46.504H23.6506V46.1956H23.3734V46.504Z" fill="#1B1C1D"/>
<path d="M17.8919 46.1956H18.1691V45.9181H17.8919V46.1956Z" fill="#1B1C1D"/>
<path d="M16.7217 46.1956H17.0296V45.9181H16.7217V46.1956Z" fill="#1B1C1D"/>
<path d="M23.0654 45.918H23.3734V45.6096H23.0654V45.918Z" fill="#1B1C1D"/>
<path d="M22.2032 45.918H22.4803V45.6096H22.2032V45.918Z" fill="#1B1C1D"/>
<path d="M21.3409 45.918H21.618V45.6096H21.3409V45.918Z" fill="#1B1C1D"/>
<path d="M20.7558 45.918H21.0637V45.6096H20.7558V45.918Z" fill="#1B1C1D"/>
<path d="M18.7541 45.918H19.0313V45.6096H18.7541V45.918Z" fill="#1B1C1D"/>
<path d="M21.3409 45.332H21.618V45.0546H21.3409V45.332Z" fill="#1B1C1D"/>
<path d="M20.7558 45.332H21.0637V45.0546H20.7558V45.332Z" fill="#1B1C1D"/>
<path d="M23.0654 45.0546H23.3734V44.7462H23.0654V45.0546Z" fill="#1B1C1D"/>
<path d="M22.2032 45.0546H22.4803V44.7462H22.2032V45.0546Z" fill="#1B1C1D"/>
<path d="M20.2015 45.0546H20.4787V44.7462H20.2015V45.0546Z" fill="#1B1C1D"/>
<path d="M18.4462 45.0546H18.7541V44.7462H18.4462V45.0546Z" fill="#1B1C1D"/>
<path d="M16.4445 45.0546H16.7217V44.7462H16.4445V45.0546Z" fill="#1B1C1D"/>
<path d="M19.8935 44.7462H19.6164V44.4686H19.3084V44.191H19.6164V44.4686H19.8935V44.7462Z" fill="#1B1C1D"/>
<path d="M17.5839 44.7462H17.8919V44.4686H17.5839V44.7462Z" fill="#1B1C1D"/>
<path d="M24.5128 44.4686H24.7899V44.191H24.5128V44.4686Z" fill="#1B1C1D"/>
<path d="M21.3409 44.4686H21.618V44.191H21.3409V44.4686Z" fill="#1B1C1D"/>
<path d="M18.1691 44.4686H18.4462V44.191H18.1691V44.4686Z" fill="#1B1C1D"/>
<path d="M23.0654 44.191H22.7882V43.8827H22.4803V43.6051H22.7882V43.8827H23.0654V44.191Z" fill="#1B1C1D"/>
<path d="M17.0296 44.191H16.7217V43.8827H16.4445V43.6051H16.7217V43.8827H17.0296V44.191Z" fill="#1B1C1D"/>
<path d="M21.0637 43.8827H21.3409V43.6051H21.0637V43.8827Z" fill="#1B1C1D"/>
<path d="M19.3084 43.8827H19.0313V43.6051H18.7541V43.3275H19.0313V43.6051H19.3084V43.8827Z" fill="#1B1C1D"/>
<path d="M17.8919 43.8827H18.1691V43.6051H17.8919V43.8827Z" fill="#1B1C1D"/>
<path d="M21.618 43.6051H21.926V43.3275H21.618V43.6051Z" fill="#1B1C1D"/>
<path d="M17.5839 43.6052H17.3067V43.3276H17.0296V43.0193H17.3067V43.3276H17.5839V43.6052Z" fill="#1B1C1D"/>
<path d="M19.8935 43.3276H19.6164V43.0193H19.3084V42.7417H19.6164V43.0193H19.8935V43.3276Z" fill="#1B1C1D"/>
<path d="M15.5822 43.3276H15.8594V43.0193H15.5822V43.3276Z" fill="#1B1C1D"/>
<path d="M30.5793 43.0193H30.8565V42.7417H30.5794L30.5793 43.0193Z" fill="#1B1C1D"/>
<path d="M20.7558 43.0193H21.0637V42.7417H20.7558V43.0193Z" fill="#1B1C1D"/>
<path d="M18.4462 43.0193H18.7541V42.7417H18.4462V43.0193Z" fill="#1B1C1D"/>
<path d="M16.4445 43.0193H16.7217V42.7417H16.4445V43.0193Z" fill="#1B1C1D"/>
<path d="M14.9971 43.0193H15.2743V42.7417H14.9971V43.0193Z" fill="#1B1C1D"/>
<path d="M23.0654 42.7416H23.3734V42.4332H23.0654V42.7416Z" fill="#1B1C1D"/>
<path d="M21.3409 42.7416H21.618V42.4332H21.3409V42.7416Z" fill="#1B1C1D"/>
<path d="M17.5839 42.7416H17.8919V42.4332H17.5839V42.7416Z" fill="#1B1C1D"/>
<path d="M24.2356 42.4332H24.5128V42.1558H24.2356V42.4332Z" fill="#1B1C1D"/>
<path d="M21.926 42.4332H22.2032V42.1558H21.926V42.4332Z" fill="#1B1C1D"/>
<path d="M20.4787 42.4332H20.7558V42.1558H20.4787V42.4332Z" fill="#1B1C1D"/>
<path d="M19.3084 42.4332H19.6164V42.1558H19.3084V42.4332Z" fill="#1B1C1D"/>
<path d="M18.1691 42.4332H18.4462V42.1558H18.1691V42.4332Z" fill="#1B1C1D"/>
<path d="M17.0296 42.4333H16.7217V42.1558H16.4445V41.8782H16.1365V41.5698H15.8594V41.2922H16.1365V41.5698H16.4445V41.8782H16.7217V42.1558H17.0296V42.4333Z" fill="#1B1C1D"/>
<path d="M14.4121 42.4332H14.72V42.1558H14.4121V42.4332Z" fill="#1B1C1D"/>
<path d="M13.5498 42.4332H13.8578V42.1558H13.5498V42.4332Z" fill="#1B1C1D"/>
<path d="M23.6506 42.1557H23.9277V41.8782H23.6506V42.1557Z" fill="#1B1C1D"/>
<path d="M21.618 41.8782H21.3409V41.5698H21.0637V41.2922H20.7558V41.0147H20.4787V40.7063H20.7558V41.0147H21.0637V41.2922H21.3409V41.5698H21.618V41.8782Z" fill="#1B1C1D"/>
<path d="M20.2015 41.8782H20.4787V41.5698H20.2015V41.8782Z" fill="#1B1C1D"/>
<path d="M12.9647 41.8782H13.2726V41.5698H12.9647V41.8782Z" fill="#1B1C1D"/>
<path d="M12.1024 41.8782H12.4104V41.5698H12.1024V41.8782Z" fill="#1B1C1D"/>
<path d="M19.3084 41.5698H19.6164V41.2922H19.3084V41.5698Z" fill="#1B1C1D"/>
<path d="M17.5839 41.5698H17.8919V41.2922H17.5839V41.5698Z" fill="#1B1C1D"/>
<path d="M13.8578 41.5698H14.1349V41.2922H13.8578V41.5698Z" fill="#1B1C1D"/>
<path d="M11.2402 41.5698H11.5481V41.2922H11.2402V41.5698Z" fill="#1B1C1D"/>
<path d="M21.926 41.2922H22.2032V41.0148H21.926V41.2922Z" fill="#1B1C1D"/>
<path d="M19.8936 41.2922H20.2015V41.0148H19.8936V41.2922Z" fill="#1B1C1D"/>
<path d="M14.9971 41.2922H15.2743V41.0148H14.9971V41.2922Z" fill="#1B1C1D"/>
<path d="M11.8252 41.2922H12.1024V41.0148H11.8252V41.2922Z" fill="#1B1C1D"/>
<path d="M25.6523 41.0147H25.9602V40.7063H25.6523V41.0147Z" fill="#1B1C1D"/>
<path d="M18.7541 41.0147H19.0313V40.7063H18.7541V41.0147Z" fill="#1B1C1D"/>
<path d="M13.2726 41.0147H13.5498V40.7063H13.2726V41.0147Z" fill="#1B1C1D"/>
<path d="M12.4104 41.0147H12.6876V40.7063H12.4104V41.0147Z" fill="#1B1C1D"/>
<path d="M19.6164 40.7064H19.8936V40.4288H19.6164V40.7064Z" fill="#1B1C1D"/>
<path d="M10.963 40.7064H11.2402V40.4288H10.963V40.7064Z" fill="#1B1C1D"/>
<path d="M10.1008 40.7064H10.3779V40.4288H10.1008V40.7064Z" fill="#1B1C1D"/>
<path d="M9.23849 40.7064H9.51562V40.4288H9.23849V40.7064Z" fill="#1B1C1D"/>
<path d="M8.37624 40.7064H8.65339V40.4288H8.37624V40.7064Z" fill="#1B1C1D"/>
<path d="M3.47983 40.7064H3.17189V40.4288H2.89473V40.1514H3.17189V40.4288H3.47983V40.7064Z" fill="#1B1C1D"/>
<path d="M21.3409 40.4288H21.618V40.1514H21.3409V40.4288Z" fill="#1B1C1D"/>
<path d="M20.7558 40.4288H21.0637V40.1514H20.7558V40.4288Z" fill="#1B1C1D"/>
<path d="M11.8252 40.4288H12.1024V40.1514H11.8252V40.4288Z" fill="#1B1C1D"/>
<path d="M7.20602 40.4288H7.51398V40.1514H7.20602V40.4288Z" fill="#1B1C1D"/>
<path d="M6.65172 40.4288H6.92888V40.1514H6.65172V40.4288Z" fill="#1B1C1D"/>
<path d="M5.75867 40.4288H6.06661V40.1514H5.75867V40.4288Z" fill="#1B1C1D"/>
<path d="M4.3421 40.4288H4.61925V40.1514H4.3421V40.4288Z" fill="#1B1C1D"/>
<path d="M14.1349 40.1513H14.4121V39.8429H14.1349V40.1513Z" fill="#1B1C1D"/>
<path d="M7.79114 40.1513H8.06829V39.8429H7.79114V40.1513Z" fill="#1B1C1D"/>
<path d="M1.44737 40.1513H2.03248V39.8429H1.72452V39.5653H1.44737V40.1513Z" fill="#1B1C1D"/>
<path d="M19.8936 39.8429H20.2015V39.5653H19.8936V39.8429Z" fill="#1B1C1D"/>
<path d="M17.5839 39.8429H17.8919V39.5653H17.5839V39.8429Z" fill="#1B1C1D"/>
<path d="M12.9647 39.8429H13.2726V39.5653H12.9647V39.8429Z" fill="#1B1C1D"/>
<path d="M27.6847 39.5653H27.9618V39.257H27.6847V39.5653Z" fill="#1B1C1D"/>
<path d="M22.4803 39.5654H22.7882V39.257H22.4803V39.5654Z" fill="#1B1C1D"/>
<path d="M19.0313 39.5654H19.3084V39.257H19.0313V39.5654Z" fill="#1B1C1D"/>
<path d="M10.3779 39.5654H10.6859V39.257H10.3779V39.5654Z" fill="#1B1C1D"/>
<path d="M8.93054 39.5654H9.23849V39.257H8.93054V39.5654Z" fill="#1B1C1D"/>
<path d="M5.48151 39.5654H5.75867V39.257H5.48151V39.5654Z" fill="#1B1C1D"/>
<path d="M21.926 39.257H22.2032V38.9795H21.926V39.257Z" fill="#1B1C1D"/>
<path d="M21.3409 39.257H21.618V38.9795H21.3409V39.257Z" fill="#1B1C1D"/>
<path d="M17.0296 39.257H17.3067V38.9795H17.0296V39.257Z" fill="#1B1C1D"/>
<path d="M15.8594 39.257H16.1365V38.9795H15.8594V39.257Z" fill="#1B1C1D"/>
<path d="M9.82355 39.257H10.1007V38.9795H9.82355V39.257Z" fill="#1B1C1D"/>
<path d="M7.20602 39.257H7.51398V38.9795H7.20602V39.257Z" fill="#1B1C1D"/>
<path d="M4.03415 39.257H4.3421V38.9795H4.03415V39.257Z" fill="#1B1C1D"/>
<path d="M20.4787 38.9795H20.7558V38.7019H20.4787V38.9795Z" fill="#1B1C1D"/>
<path d="M2.89473 38.9795H3.17189V38.7019H2.89473V38.9795Z" fill="#1B1C1D"/>
<path d="M21.3409 38.7018H21.618V38.3934H21.3409V38.7018Z" fill="#1B1C1D"/>
<path d="M11.8252 38.7018H12.1024V38.3934H11.8252V38.7018Z" fill="#1B1C1D"/>
<path d="M10.6859 38.7018H10.963V38.3934H10.6859V38.7018Z" fill="#1B1C1D"/>
<path d="M8.65338 38.7018H8.93054V38.3934H8.65338V38.7018Z" fill="#1B1C1D"/>
<path d="M29.1321 38.3934H29.4092V38.116H29.1321V38.3934Z" fill="#1B1C1D"/>
<path d="M17.8919 38.3934H18.1691V38.116H17.8919V38.3934Z" fill="#1B1C1D"/>
<path d="M7.51398 38.3934H7.79114V38.116H7.51398V38.3934Z" fill="#1B1C1D"/>
<path d="M5.75867 38.3934H6.06661V38.116H5.75867V38.3934Z" fill="#1B1C1D"/>
<path d="M34.3056 38.1159H34.6135V37.8384H34.3056V38.1159Z" fill="#1B1C1D"/>
<path d="M24.5128 38.1159H24.7899V37.8384H24.5128V38.1159Z" fill="#1B1C1D"/>
<path d="M22.2032 38.1159H22.4803V37.8384H22.2032V38.1159Z" fill="#1B1C1D"/>
<path d="M8.37624 38.1159H8.65339V37.8384H8.37624V38.1159Z" fill="#1B1C1D"/>
<path d="M5.20435 38.1159H5.4815V37.8384H5.20435V38.1159Z" fill="#1B1C1D"/>
<path d="M3.75699 38.1159H4.03414V37.8384H3.75699V38.1159Z" fill="#1B1C1D"/>
<path d="M3.17189 38.1159H3.47983V37.8384H3.17189V38.1159Z" fill="#1B1C1D"/>
<path d="M2.58678 38.1159H2.89473V37.8384H2.58678V38.1159Z" fill="#1B1C1D"/>
<path d="M22.7882 37.8384H23.0654V37.53H22.7882V37.8384Z" fill="#1B1C1D"/>
<path d="M17.3067 37.8384H17.5839V37.53H17.3067V37.8384Z" fill="#1B1C1D"/>
<path d="M14.72 37.8384H14.9971V37.53H14.72V37.8384Z" fill="#1B1C1D"/>
<path d="M12.9647 37.8384H13.2726V37.53H12.9647V37.8384Z" fill="#1B1C1D"/>
<path d="M11.8252 37.8384H12.1024V37.53H11.8252V37.8384Z" fill="#1B1C1D"/>
<path d="M10.6859 37.8384H10.963V37.53H10.6859V37.8384Z" fill="#1B1C1D"/>
<path d="M35.7529 37.53H36.0301V37.2526H35.7529V37.53Z" fill="#1B1C1D"/>
<path d="M25.6523 37.53H25.9602V37.2526H25.6523V37.53Z" fill="#1B1C1D"/>
<path d="M19.6164 37.53H19.3084V37.2525H19.0313V36.975H19.3084V37.2525H19.6164V37.53Z" fill="#1B1C1D"/>
<path d="M16.7217 37.53H17.0296V37.2526H16.7217V37.53Z" fill="#1B1C1D"/>
<path d="M10.1008 37.53H10.3779V37.2526H10.1008V37.53Z" fill="#1B1C1D"/>
<path d="M9.51561 37.53H9.82355V37.2526H9.51561V37.53Z" fill="#1B1C1D"/>
<path d="M3.17189 37.5299H2.89473V36.9749H2.58678V36.6665H2.89473V36.3889H3.17189V36.6665H3.47983V36.9749H3.17189V37.5299Z" fill="#1B1C1D"/>
<path d="M33.4434 37.2525H33.7513V36.975H33.4434V37.2525Z" fill="#1B1C1D"/>
<path d="M32.581 37.2525H32.889V36.975H32.581V37.2525Z" fill="#1B1C1D"/>
<path d="M31.1337 37.2525H31.4417V36.975H31.1337V37.2525Z" fill="#1B1C1D"/>
<path d="M23.9277 37.2525H24.2356V36.975H23.9277V37.2525Z" fill="#1B1C1D"/>
<path d="M23.0654 37.2525H23.3734V36.975H23.0654V37.2525Z" fill="#1B1C1D"/>
<path d="M16.1365 37.2525H16.4445V36.975H16.1365V37.2525Z" fill="#1B1C1D"/>
<path d="M13.8578 37.2525H14.1349V36.975H13.8578V37.2525Z" fill="#1B1C1D"/>
<path d="M7.20602 37.2525H7.51398V36.975H7.20602V37.2525Z" fill="#1B1C1D"/>
<path d="M37.2003 36.9749H37.4775V36.6665H37.2003V36.9749Z" fill="#1B1C1D"/>
<path d="M30.5794 36.9749H30.2714V36.6665H29.9943V36.3889H30.2714V36.1115H30.5794V36.3889H30.2714V36.6665H30.5794V36.9749Z" fill="#1B1C1D"/>
<path d="M22.4803 36.9749H22.7882V36.6665H22.4803V36.9749Z" fill="#1B1C1D"/>
<path d="M21.926 36.9749H22.2032V36.6665H21.926V36.9749Z" fill="#1B1C1D"/>
<path d="M9.51561 36.9749H9.82355V36.6665H9.51561V36.9749Z" fill="#1B1C1D"/>
<path d="M8.93054 36.9749H9.23849V36.6665H8.93054V36.9749Z" fill="#1B1C1D"/>
<path d="M5.48151 36.9749H5.75867V36.6665H5.48151V36.9749Z" fill="#1B1C1D"/>
<path d="M37.7854 36.6665H38.0625V36.3889H37.7854V36.6665Z" fill="#1B1C1D"/>
<path d="M31.996 36.6665H32.3039V36.3889H31.996V36.6665Z" fill="#1B1C1D"/>
<path d="M30.8565 36.6665H31.1337V36.3889H30.8565V36.6665Z" fill="#1B1C1D"/>
<path d="M23.3734 36.6665H23.6506V36.3889H23.3734V36.6665Z" fill="#1B1C1D"/>
<path d="M11.8252 36.6665H12.1024V36.3889H11.8252V36.6665Z" fill="#1B1C1D"/>
<path d="M11.2402 36.6665H11.5481V36.3889H11.2402V36.6665Z" fill="#1B1C1D"/>
<path d="M3.75699 36.6665H4.03414V36.3889H3.75699V36.6665Z" fill="#1B1C1D"/>
<path d="M1.44737 36.6665H1.72452V36.3889H1.44737V36.6665Z" fill="#1B1C1D"/>
<path d="M21.0637 36.3889H21.3409V36.1115H21.0637V36.3889Z" fill="#1B1C1D"/>
<path d="M18.4462 36.3889H18.7541V36.1115H18.4462V36.3889Z" fill="#1B1C1D"/>
<path d="M17.3067 36.3889H17.5839V36.1115H17.3067V36.3889Z" fill="#1B1C1D"/>
<path d="M15.2743 36.3889H15.5823V36.1115H15.2743V36.3889Z" fill="#1B1C1D"/>
<path d="M10.1008 36.3889H10.3779V36.1115H10.1008V36.3889Z" fill="#1B1C1D"/>
<path d="M6.34377 36.3889H6.65173V36.1115H6.34377V36.3889Z" fill="#1B1C1D"/>
<path d="M4.61925 36.3889H4.89641V36.1115H4.61925V36.3889Z" fill="#1B1C1D"/>
<path d="M13.8578 36.1115H14.1349V35.8031H13.8578V36.1115Z" fill="#1B1C1D"/>
<path d="M12.6876 36.1115H12.9647V35.8031H12.6876V36.1115Z" fill="#1B1C1D"/>
<path d="M9.51561 36.1115H9.82355V35.8031H9.51561V36.1115Z" fill="#1B1C1D"/>
<path d="M2.58678 36.1115H2.89473V35.5255H2.58678V36.1115Z" fill="#1B1C1D"/>
<path d="M38.6477 35.8031H38.9249V35.5255H38.6477V35.8031Z" fill="#1B1C1D"/>
<path d="M36.0301 35.8031H36.338V35.5255H36.0301V35.8031Z" fill="#1B1C1D"/>
<path d="M30.5794 35.8031H31.1337V35.5256H30.8565V35.2172H31.1337V34.9397H30.8565V34.6621H30.5794V35.2172H30.2714V35.5256H30.5794V35.8031Z" fill="#1B1C1D"/>
<path d="M25.375 35.8031H25.6522V35.5255H25.375V35.8031Z" fill="#1B1C1D"/>
<path d="M23.9277 35.8031H24.2356V35.5255H23.9277V35.8031Z" fill="#1B1C1D"/>
<path d="M22.2032 35.8031H22.4803V35.5255H22.2032V35.8031Z" fill="#1B1C1D"/>
<path d="M17.0296 35.8031H17.3067V35.5255H17.0296V35.8031Z" fill="#1B1C1D"/>
<path d="M14.72 35.8031H14.9971V35.5255H14.72V35.8031Z" fill="#1B1C1D"/>
<path d="M11.5481 35.8031H12.1024V35.5255H11.5481V35.8031Z" fill="#1B1C1D"/>
<path d="M8.93054 35.8031H9.23849V35.5255H8.93054V35.8031Z" fill="#1B1C1D"/>
<path d="M7.51398 35.8031H7.79114V35.5255H7.51398V35.8031Z" fill="#1B1C1D"/>
<path d="M1.17021 35.8031H1.44736V35.5255H1.17021V35.8031Z" fill="#1B1C1D"/>
<path d="M24.5128 35.5255H24.7899V35.2172H24.5128V35.5255Z" fill="#1B1C1D"/>
<path d="M23.0654 35.5255H23.3734V35.2172H23.0654V35.5255Z" fill="#1B1C1D"/>
<path d="M15.5822 35.5255H15.8594V35.2172H15.5822V35.5255Z" fill="#1B1C1D"/>
<path d="M12.4104 35.5255H12.6876V35.2172H12.4104V35.5255Z" fill="#1B1C1D"/>
<path d="M10.963 35.5255H11.2402V35.2172H10.963V35.5255Z" fill="#1B1C1D"/>
<path d="M10.3779 35.5255H10.6859V35.2172H10.3779V35.5255Z" fill="#1B1C1D"/>
<path d="M8.06828 35.5255H8.37624V35.2172H8.06828V35.5255Z" fill="#1B1C1D"/>
<path d="M23.9277 35.2171H24.2356V34.9396H23.9277V35.2171Z" fill="#1B1C1D"/>
<path d="M19.0313 35.2171H19.3084V34.9396H19.0313V35.2171Z" fill="#1B1C1D"/>
<path d="M18.1691 35.2171H18.4462V34.9396H18.1691V35.2171Z" fill="#1B1C1D"/>
<path d="M13.5498 35.2171H13.8578V34.9396H13.5498V35.2171Z" fill="#1B1C1D"/>
<path d="M11.8252 35.2171H12.1024V34.9396H11.8252V35.2171Z" fill="#1B1C1D"/>
<path d="M5.75867 35.2171H6.06661V34.9396H5.75867V35.2171Z" fill="#1B1C1D"/>
<path d="M2.58678 35.2171H2.89473V34.9396H2.58678V35.2171Z" fill="#1B1C1D"/>
<path d="M39.7871 34.9397H40.0951V34.6621H39.7871V34.9397Z" fill="#1B1C1D"/>
<path d="M37.4775 34.9397H37.7854V34.6621H37.4775V34.9397Z" fill="#1B1C1D"/>
<path d="M17.0296 34.9397H17.3067V34.6621H17.0296V34.9397Z" fill="#1B1C1D"/>
<path d="M10.6859 34.9396H10.3779V34.6621H10.1008V34.3538H10.3779V34.6621H10.6859V34.9396Z" fill="#1B1C1D"/>
<path d="M9.23849 34.9397H9.51562V34.6621H9.23849V34.9397Z" fill="#1B1C1D"/>
<path d="M5.20435 34.9397H5.4815V34.6621H5.20435V34.9397Z" fill="#1B1C1D"/>
<path d="M4.61925 34.9397H4.89641V34.6621H4.61925V34.9397Z" fill="#1B1C1D"/>
<path d="M3.47983 34.9397H3.75699V34.6621H3.47983V34.9397Z" fill="#1B1C1D"/>
<path d="M28.5469 34.6621H28.8241V34.3538H28.5469V34.6621Z" fill="#1B1C1D"/>
<path d="M23.9277 34.6621H24.5128V34.3538H23.9277V34.6621Z" fill="#1B1C1D"/>
<path d="M2.30963 34.6621H2.58678V34.3538H2.30963V34.6621Z" fill="#1B1C1D"/>
<path d="M27.6847 34.3537H27.9618V34.0762H27.6847V34.3537Z" fill="#1B1C1D"/>
<path d="M26.5452 34.3537H26.8224V34.0762H26.5452V34.3537Z" fill="#1B1C1D"/>
<path d="M18.1691 34.3537H18.4462V34.0762H18.1691V34.3537Z" fill="#1B1C1D"/>
<path d="M11.8252 34.3537H12.1024V34.0762H11.8252V34.3537Z" fill="#1B1C1D"/>
<path d="M8.93054 34.3537H9.23849V34.0762H8.93054V34.3537Z" fill="#1B1C1D"/>
<path d="M7.20602 34.3537H7.51398V34.0762H7.20602V34.3537Z" fill="#1B1C1D"/>
<path d="M4.3421 34.3537H4.61925V34.0762H4.3421V34.3537Z" fill="#1B1C1D"/>
<path d="M0.862259 34.3537H1.17021V34.0762H0.862259V34.3537Z" fill="#1B1C1D"/>
<path d="M23.3734 34.0762H23.6506V33.7986H23.3734V34.0762Z" fill="#1B1C1D"/>
<path d="M17.0296 34.0762H17.3067V33.7986H17.0296V34.0762Z" fill="#1B1C1D"/>
<path d="M13.5498 34.0762H13.2726V33.7986H12.9647V33.4902H13.2726V33.7986H13.5498V34.0762Z" fill="#1B1C1D"/>
<path d="M2.58678 34.0762H2.30963V33.7986H1.72452V33.4902H2.30963V33.7986H2.58678V34.0762Z" fill="#1B1C1D"/>
<path d="M39.202 33.7986H39.5099V33.4902H39.202V33.7986Z" fill="#1B1C1D"/>
<path d="M15.8594 33.7986H16.1365V33.4902H15.8594V33.7986Z" fill="#1B1C1D"/>
<path d="M12.1024 33.7986H12.4104V33.4902H12.1024V33.7986Z" fill="#1B1C1D"/>
<path d="M11.2402 33.7986H11.5481V33.4902H11.2402V33.7986Z" fill="#1B1C1D"/>
<path d="M10.3779 33.7986H10.6859V33.4902H10.3779V33.7986Z" fill="#1B1C1D"/>
<path d="M9.82355 33.7986H10.1007V33.4902H9.82355V33.7986Z" fill="#1B1C1D"/>
<path d="M3.75699 33.7986H4.03414V33.4902H3.75699V33.7986Z" fill="#1B1C1D"/>
<path d="M30.5794 33.4901H30.8565V33.2126H30.5794V33.4901Z" fill="#1B1C1D"/>
<path d="M14.72 33.4901H14.9971V33.2126H14.72V33.4901Z" fill="#1B1C1D"/>
<path d="M6.34377 33.4901H6.65172V33.2126H6.34377V33.4901Z" fill="#1B1C1D"/>
<path d="M31.4417 33.2128H31.7188V32.9352H31.4417V33.2128Z" fill="#1B1C1D"/>
<path d="M27.4075 33.2128H27.6847V32.9352H27.4075V33.2128Z" fill="#1B1C1D"/>
<path d="M21.926 33.2128H22.2032V32.9352H21.926V33.2128Z" fill="#1B1C1D"/>
<path d="M19.3084 33.2128H19.6164V32.9352H19.3084V33.2128Z" fill="#1B1C1D"/>
<path d="M17.8919 33.2128H18.1691V32.9352H17.8919V33.2128Z" fill="#1B1C1D"/>
<path d="M9.82355 33.2128H10.1007V32.9352H9.82355V33.2128Z" fill="#1B1C1D"/>
<path d="M8.65338 33.2128H8.93054V32.9352H8.65338V33.2128Z" fill="#1B1C1D"/>
<path d="M0 33.2128H0.307954V32.9352H2.42617e-08L0 33.2128Z" fill="#1B1C1D"/>
<path d="M32.581 32.9351H32.889V32.6267H32.581V32.9351Z" fill="#1B1C1D"/>
<path d="M20.4787 32.9351H20.7558V32.6267H20.4787V32.9351Z" fill="#1B1C1D"/>
<path d="M15.8594 32.9351H16.1365V32.6267H15.8594V32.9351Z" fill="#1B1C1D"/>
<path d="M7.51398 32.9351H7.79114V32.6267H7.51398V32.9351Z" fill="#1B1C1D"/>
<path d="M1.72452 32.9351H2.03248V32.6267H1.72452V32.9351Z" fill="#1B1C1D"/>
<path d="M29.9943 32.6267H30.2714V32.3492H29.9943V32.6267Z" fill="#1B1C1D"/>
<path d="M12.1024 32.6267H12.4104V32.3492H12.1024V32.6267Z" fill="#1B1C1D"/>
<path d="M10.6859 32.6267H10.963V32.3492H10.6859V32.6267Z" fill="#1B1C1D"/>
<path d="M9.51561 32.6267H9.82355V32.3492H9.51561V32.6267Z" fill="#1B1C1D"/>
<path d="M6.34377 32.6268H6.06661V32.3493H5.75867V32.0409H6.06661V32.3493H6.34377V32.6268Z" fill="#1B1C1D"/>
<path d="M3.47983 32.6267H3.75699V32.3492H3.47983V32.6267Z" fill="#1B1C1D"/>
<path d="M1.17021 32.6267H1.44736V32.3492H1.17021V32.6267Z" fill="#1B1C1D"/>
<path d="M29.1321 32.3493H29.4092V32.0409H29.1321V32.3493Z" fill="#1B1C1D"/>
<path d="M17.8919 32.3493H18.1691V32.0409H17.8919V32.3493Z" fill="#1B1C1D"/>
<path d="M12.9647 32.3493H13.2726V32.0409H12.9647V32.3493Z" fill="#1B1C1D"/>
<path d="M6.92886 32.3493H7.20601V32.0409H6.92886V32.3493Z" fill="#1B1C1D"/>
<path d="M1.72452 32.3493H2.03248V32.0409H1.72452V32.3493Z" fill="#1B1C1D"/>
<path d="M14.9971 32.0409H15.2743V31.7633H14.9971V32.0409Z" fill="#1B1C1D"/>
<path d="M13.5498 32.0409H13.8578V31.7633H13.5498V32.0409Z" fill="#1B1C1D"/>
<path d="M11.8252 32.0409H12.1024V31.7633H11.8252V32.0409Z" fill="#1B1C1D"/>
<path d="M9.23849 32.0409H9.51562V31.7633H9.23849V32.0409Z" fill="#1B1C1D"/>
<path d="M4.61925 32.0409H4.89641V31.7633H4.61925V32.0409Z" fill="#1B1C1D"/>
<path d="M2.89473 32.0409H3.17189V31.7633H2.89473V32.0409Z" fill="#1B1C1D"/>
<path d="M23.6506 31.7633H23.9277V31.4858H23.6506V31.7633Z" fill="#1B1C1D"/>
<path d="M17.0296 31.7633H16.7217V31.4858H16.4445V31.1774H16.7217V31.4858H17.0296V31.7633Z" fill="#1B1C1D"/>
<path d="M10.1008 31.7633H10.3779V31.4858H10.1008V31.7633Z" fill="#1B1C1D"/>
<path d="M7.79114 31.7633H8.06829V31.4858H7.79114V31.7633Z" fill="#1B1C1D"/>
<path d="M1.72451 31.7632H1.44736V31.4858H1.17021V31.1774H1.44736V30.8998H1.72451V31.1774H1.44736V31.4858H1.72451V31.7632Z" fill="#1B1C1D"/>
<path d="M18.7541 31.4858H19.0313V31.1774H18.7541V31.4858Z" fill="#1B1C1D"/>
<path d="M17.8919 31.4858H18.1691V31.1774H17.8919V31.4858Z" fill="#1B1C1D"/>
<path d="M8.93054 31.4858H9.23849V31.1774H8.93054V31.4858Z" fill="#1B1C1D"/>
<path d="M5.75867 31.4858H6.06661V31.1774H5.75867V31.4858Z" fill="#1B1C1D"/>
<path d="M11.5481 30.8998H11.8252V30.6222H11.5481V30.8998Z" fill="#1B1C1D"/>
<path d="M7.51398 30.8998H7.79114V30.6222H7.51398V30.8998Z" fill="#1B1C1D"/>
<path d="M6.65172 30.8998H6.92887V30.6222H6.65172V30.8998Z" fill="#1B1C1D"/>
<path d="M5.20435 30.8998H5.4815V30.6222H5.20435V30.8998Z" fill="#1B1C1D"/>
<path d="M4.03415 30.8998H4.3421V30.6222H4.03415V30.8998Z" fill="#1B1C1D"/>
<path d="M3.17189 30.8998H3.47983V30.6222H3.17189V30.8998Z" fill="#1B1C1D"/>
<path d="M0.862259 30.8999H1.17021V30.314H0.862259V30.8999Z" fill="#1B1C1D"/>
<path d="M38.0625 30.6223H38.3397V30.314H38.0625V30.6223Z" fill="#1B1C1D"/>
<path d="M36.0301 30.6223H36.338V30.314H36.0301V30.6223Z" fill="#1B1C1D"/>
<path d="M35.1678 30.6223H35.4758V30.314H35.1678V30.6223Z" fill="#1B1C1D"/>
<path d="M16.4445 30.6223H16.7217V30.314H16.4445V30.6223Z" fill="#1B1C1D"/>
<path d="M12.6876 30.6223H12.9647V30.314H12.6876V30.6223Z" fill="#1B1C1D"/>
<path d="M10.1008 30.6223H10.3779V30.314H10.1008V30.6223Z" fill="#1B1C1D"/>
<path d="M9.23849 30.6223H9.51562V30.314H9.23849V30.6223Z" fill="#1B1C1D"/>
<path d="M37.4775 30.3139H37.7854V30.0364H37.4775V30.3139Z" fill="#1B1C1D"/>
<path d="M17.5839 30.3139H17.8919V30.0364H17.5839V30.3139Z" fill="#1B1C1D"/>
<path d="M8.65338 30.3139H8.93054V30.0364H8.65338V30.3139Z" fill="#1B1C1D"/>
<path d="M2.89473 30.3139H3.17189V30.0364H2.89473V30.3139Z" fill="#1B1C1D"/>
<path d="M23.6506 30.0364H23.9277V29.7588H23.6506V30.0364Z" fill="#1B1C1D"/>
<path d="M16.1365 30.0364H16.4445V29.7588H16.1365V30.0364Z" fill="#1B1C1D"/>
<path d="M6.92886 30.0364H7.20601L7.20602 29.7588H6.92886V30.0364Z" fill="#1B1C1D"/>
<path d="M6.34377 30.0364H6.65172V29.7588H6.34377V30.0364Z" fill="#1B1C1D"/>
<path d="M5.75866 30.0363H5.4815V29.7588H5.20435V29.4504H5.4815V29.7588H5.75866V30.0363Z" fill="#1B1C1D"/>
<path d="M0.862261 30.0363H0.307953V29.7588H0L2.69627e-08 29.4504H0.307953V29.7588H0.862262L0.862261 30.0363Z" fill="#1B1C1D"/>
<path d="M39.7871 29.7588H40.0951V29.4504H39.7871V29.7588Z" fill="#1B1C1D"/>
<path d="M18.4462 29.7588H18.7541V29.4504H18.4462V29.7588Z" fill="#1B1C1D"/>
<path d="M8.06828 29.7588H8.37624V29.4504H8.06828V29.7588Z" fill="#1B1C1D"/>
<path d="M21.926 29.4504H22.2032V29.1729H21.926V29.4504Z" fill="#1B1C1D"/>
<path d="M20.2015 29.4504H20.4787V29.1729H20.2015V29.4504Z" fill="#1B1C1D"/>
<path d="M17.3067 29.4504H17.5839V29.1729H17.3067V29.4504Z" fill="#1B1C1D"/>
<path d="M8.93054 29.4505H9.23849V28.8645H8.93054V29.4505Z" fill="#1B1C1D"/>
<path d="M1.44737 29.4504H1.72453V29.1729H1.44737V29.4504Z" fill="#1B1C1D"/>
<path d="M15.8594 29.1729H16.1365V28.8645H15.8594V29.1729Z" fill="#1B1C1D"/>
<path d="M7.79113 29.1729H7.51397V28.8645H7.20602V28.587H7.51397V28.8645H7.79113V29.1729Z" fill="#1B1C1D"/>
<path d="M6.65172 29.1729H6.34377V28.8645H6.06661V28.587H5.75867V28.3094H6.06661V28.587H6.34377V28.8645H6.65172V29.1729Z" fill="#1B1C1D"/>
<path d="M4.61925 29.1729H4.89641V28.8645H4.61925V29.1729Z" fill="#1B1C1D"/>
<path d="M38.9249 28.8645H39.202V28.587H38.9249V28.8645Z" fill="#1B1C1D"/>
<path d="M11.8252 28.8645H12.1024V28.587H11.8252V28.8645Z" fill="#1B1C1D"/>
<path d="M10.1008 28.8645H10.3779V28.587H10.1008V28.8645Z" fill="#1B1C1D"/>
<path d="M8.06828 28.8645H8.37624V28.587H8.06828V28.8645Z" fill="#1B1C1D"/>
<path d="M4.03415 28.8645H4.3421V28.587H4.03415V28.8645Z" fill="#1B1C1D"/>
<path d="M2.89473 28.8645H3.17189V28.587H2.89473V28.8645Z" fill="#1B1C1D"/>
<path d="M0 28.8645H0.307953V28.587H2.42617e-08L0 28.8645Z" fill="#1B1C1D"/>
<path d="M16.7217 28.587H17.0296V28.3094H16.7217V28.587Z" fill="#1B1C1D"/>
<path d="M12.9647 28.587H13.2726V28.3094H12.9647V28.587Z" fill="#1B1C1D"/>
<path d="M25.375 28.3094H25.6522V28.001H25.375V28.3094Z" fill="#1B1C1D"/>
<path d="M23.9277 28.3094H24.2356V28.001H23.9277V28.3094Z" fill="#1B1C1D"/>
<path d="M15.8594 28.3094H16.1365V28.001H15.8594V28.3094Z" fill="#1B1C1D"/>
<path d="M14.9972 28.3094H15.2743V28.001H14.9972V28.3094Z" fill="#1B1C1D"/>
<path d="M11.2402 28.3094H11.5481V28.001H11.2402V28.3094Z" fill="#1B1C1D"/>
<path d="M5.20435 28.3094H5.4815V28.001H5.20435V28.3094Z" fill="#1B1C1D"/>
<path d="M9.51561 28.0011H9.82355V27.7235H9.51561V28.0011Z" fill="#1B1C1D"/>
<path d="M8.65338 28.0011H8.93054V27.7235H8.65338V28.0011Z" fill="#1B1C1D"/>
<path d="M7.20602 28.0011H7.51397V27.7235H7.20602V28.0011Z" fill="#1B1C1D"/>
<path d="M6.34377 28.001H6.06661V27.7235H5.75867V27.446H6.06661V27.1376H6.34377V27.446H6.06661V27.7235H6.34377V28.001Z" fill="#1B1C1D"/>
<path d="M4.03415 28.0011H4.3421V27.7235H4.03415V28.0011Z" fill="#1B1C1D"/>
<path d="M22.4803 27.7234H22.7882V27.4459H22.4803V27.7234Z" fill="#1B1C1D"/>
<path d="M16.1365 27.7235H15.8594V27.446H15.5822V27.1376H15.8594V27.446H16.1365V27.7235Z" fill="#1B1C1D"/>
<path d="M14.72 27.7234H14.9972V27.4459H14.72V27.7234Z" fill="#1B1C1D"/>
<path d="M2.30963 27.7234H2.58678V27.4459H2.30963V27.7234Z" fill="#1B1C1D"/>
<path d="M23.3734 27.446H23.6506V27.1376H23.3734V27.446Z" fill="#1B1C1D"/>
<path d="M21.0637 27.446H21.3409V27.1376H21.0637V27.446Z" fill="#1B1C1D"/>
<path d="M8.06828 27.446H8.37624V27.1376H8.06828V27.446Z" fill="#1B1C1D"/>
<path d="M7.51397 27.446H7.20603V27.1376H6.92887V26.86H6.65172V26.5825H6.92887V26.86H7.20603V27.1376H7.51397V27.446Z" fill="#1B1C1D"/>
<path d="M0 27.446H0.307954V27.1376H2.69625e-08L0 27.446Z" fill="#1B1C1D"/>
<path d="M27.4075 27.1376H27.6847V26.86H27.4075V27.1376Z" fill="#1B1C1D"/>
<path d="M16.1365 27.1376H16.4445V26.86H16.1365V27.1376Z" fill="#1B1C1D"/>
<path d="M13.2726 27.1376H13.5498V26.86H13.2726V27.1376Z" fill="#1B1C1D"/>
<path d="M9.51561 27.1376H9.23849V26.86H8.93054V26.5825H9.23849V26.86H9.51561V27.1376Z" fill="#1B1C1D"/>
<path d="M4.34209 27.1376H4.03414V26.86H3.75699V26.5825H4.03414V26.86H4.34209V27.1376Z" fill="#1B1C1D"/>
<path d="M28.8241 26.86H29.1321V26.5825H28.8241V26.86Z" fill="#1B1C1D"/>
<path d="M15.5822 26.86H15.2743V26.2742H14.9972V25.9966H15.2743V26.2742H15.5822V26.86Z" fill="#1B1C1D"/>
<path d="M12.6876 26.86H12.9647V26.5825H12.6876V26.86Z" fill="#1B1C1D"/>
<path d="M5.48151 26.86H5.75867V26.5825H5.48151V26.86Z" fill="#1B1C1D"/>
<path d="M3.17189 26.86H3.47983V26.5825H3.17189V26.86Z" fill="#1B1C1D"/>
<path d="M1.72452 26.86H2.03247V26.5825H1.72452V26.86Z" fill="#1B1C1D"/>
<path d="M25.9602 26.5826H26.2373V26.2742H25.9602V26.5826Z" fill="#1B1C1D"/>
<path d="M11.5481 26.5826H11.8252V26.2742H11.5481V26.5826Z" fill="#1B1C1D"/>
<path d="M8.06828 26.5826H8.37624V26.2742H8.06828V26.5826Z" fill="#1B1C1D"/>
<path d="M7.51398 26.2742H7.79114V25.9966H7.51398V26.2742Z" fill="#1B1C1D"/>
<path d="M6.92886 26.2742H7.20602V25.9966H6.92886V26.2742Z" fill="#1B1C1D"/>
<path d="M26.8224 25.9965H27.0995V25.6882H26.8224V25.9965Z" fill="#1B1C1D"/>
<path d="M6.34377 25.9965H6.65172V25.6881H6.34377V25.9965Z" fill="#1B1C1D"/>
<path d="M1.17021 25.9965H1.44736V25.6881H1.17021V25.9965Z" fill="#1B1C1D"/>
<path d="M23.0654 25.6882H23.3734V25.4106H23.0654V25.6882Z" fill="#1B1C1D"/>
<path d="M14.4121 25.6882H14.9972V25.4106H14.4121V25.6882Z" fill="#1B1C1D"/>
<path d="M10.963 25.6881H11.2402V25.4106H10.963V25.6881Z" fill="#1B1C1D"/>
<path d="M8.0683 25.6881H8.37624V25.4106H8.0683V25.6881Z" fill="#1B1C1D"/>
<path d="M7.51397 25.6882H7.20602V25.4107H6.92886V25.1331H7.20602V24.8247H7.51397V25.1331H7.20602V25.4107H7.51397V25.6882Z" fill="#1B1C1D"/>
<path d="M5.48151 25.6881H5.75867V25.4106H5.48151V25.6881Z" fill="#1B1C1D"/>
<path d="M3.17189 25.6881H3.47983V25.4106H3.17189V25.6881Z" fill="#1B1C1D"/>
<path d="M30.2714 25.4106H30.5794V25.1331H30.2714V25.4106Z" fill="#1B1C1D"/>
<path d="M25.375 25.4106H25.6522V25.1331H25.375V25.4106Z" fill="#1B1C1D"/>
<path d="M12.9647 25.4106H13.2726V25.1331H12.9647V25.4106Z" fill="#1B1C1D"/>
<path d="M10.1008 25.4106H10.3779V25.1331H10.1008V25.4106Z" fill="#1B1C1D"/>
<path d="M9.23849 25.4106H9.51562V25.1331H9.23849V25.4106Z" fill="#1B1C1D"/>
<path d="M14.1349 25.1331H14.4121V24.8247H14.1349V25.1331Z" fill="#1B1C1D"/>
<path d="M6.34377 25.1331H6.65172V24.8247H6.34377V25.1331Z" fill="#1B1C1D"/>
<path d="M4.61925 25.1331H4.89641V24.8247H4.61925V25.1331Z" fill="#1B1C1D"/>
<path d="M0.585114 25.1331H0.862271V24.8247H0.585114V25.1331Z" fill="#1B1C1D"/>
<path d="M24.2356 24.8247H24.5128V24.5472H24.2356V24.8247Z" fill="#1B1C1D"/>
<path d="M12.1024 24.8247H12.4104V24.5472H12.1024V24.8247Z" fill="#1B1C1D"/>
<path d="M7.79114 24.8247H8.0683V24.5472H7.79114V24.8247Z" fill="#1B1C1D"/>
<path d="M5.75867 24.8247H6.06661V24.5472H5.75867V24.8247Z" fill="#1B1C1D"/>
<path d="M26.8224 24.5472H27.0995V24.2697H26.8224V24.5472Z" fill="#1B1C1D"/>
<path d="M13.8578 24.5472H14.1349V24.2697H13.8578V24.5472Z" fill="#1B1C1D"/>
<path d="M8.93054 24.5472H9.23849V24.2697H8.93054V24.5472Z" fill="#1B1C1D"/>
<path d="M6.92886 24.5472H7.20602V24.2697H6.92886V24.5472Z" fill="#1B1C1D"/>
<path d="M2.89473 24.5472H3.17189V24.2697H2.89473V24.5472Z" fill="#1B1C1D"/>
<path d="M11.8252 24.2696H12.1024V23.9612H11.8252V24.2696Z" fill="#1B1C1D"/>
<path d="M5.48151 24.2696H5.75867V23.9612H5.48151V24.2696Z" fill="#1B1C1D"/>
<path d="M26.2373 23.9612H26.5452V23.6837H26.2373V23.9612Z" fill="#1B1C1D"/>
<path d="M23.9277 23.9612H24.2356V23.6837H23.9277V23.9612Z" fill="#1B1C1D"/>
<path d="M14.72 23.9612H14.9972V23.6837H14.72V23.9612Z" fill="#1B1C1D"/>
<path d="M13.2726 23.9612H13.5498V23.6837H13.2726V23.9612Z" fill="#1B1C1D"/>
<path d="M11.2402 23.9612H10.963V23.6837H10.6859V23.4061H10.963V23.6837H11.2402V23.9612Z" fill="#1B1C1D"/>
<path d="M8.37624 23.9612H8.65339V23.6837H8.37624V23.9612Z" fill="#1B1C1D"/>
<path d="M7.79114 23.9612H8.0683V23.6837H7.79114V23.9612Z" fill="#1B1C1D"/>
<path d="M6.92886 23.9612H7.20602V23.6837H6.92886V23.9612Z" fill="#1B1C1D"/>
<path d="M6.34377 23.9612H6.65172V23.6837H6.34377V23.9612Z" fill="#1B1C1D"/>
<path d="M4.03415 23.9612H4.3421V23.6837H4.03415V23.9612Z" fill="#1B1C1D"/>
<path d="M2.30963 23.9612H2.58679V23.6837H2.30963V23.9612Z" fill="#1B1C1D"/>
<path d="M0.307953 23.9612H0.585103V23.6837H0.307953V23.9612Z" fill="#1B1C1D"/>
<path d="M31.996 23.6837H32.3039V23.4061H31.996V23.6837Z" fill="#1B1C1D"/>
<path d="M4.89641 23.6837H5.20435V23.4061H4.89641V23.6837Z" fill="#1B1C1D"/>
<path d="M25.375 23.4062H25.6522V23.0978H25.375V23.4062Z" fill="#1B1C1D"/>
<path d="M11.2402 23.4062H11.5481V23.0978H11.2402V23.4062Z" fill="#1B1C1D"/>
<path d="M10.1008 23.4062H10.3779V23.0978H10.1008V23.4062Z" fill="#1B1C1D"/>
<path d="M9.23849 23.4062H9.51562V23.0978H9.23849V23.4062Z" fill="#1B1C1D"/>
<path d="M8.0683 23.4062H8.37624V23.0978H8.0683V23.4062Z" fill="#1B1C1D"/>
<path d="M7.79114 23.4062H7.51398V23.0978H7.20603V23.4062H6.92888V23.0978H7.20603V22.8202H6.92888V22.5119H6.65173V22.8202H6.34377V23.0978H6.65173V23.4062H6.34377V23.0978H6.06661V23.4062H5.75867V23.0978H6.06661V22.8202H6.34377V22.5119H5.75867V22.8202H5.48151V22.5119H5.20435V21.9568H4.61925V21.6485H4.3421V21.3709H3.757V20.785H3.47984V20.5074H3.17189V20.785H2.89474V20.5074H3.17189V20.2299H3.47984V19.9214H3.17189V19.644H2.89474V19.3356H2.58679V19.058H2.89474V19.3356H3.17189V19.644H3.47984V19.9214H3.757V20.2299H4.03415V19.644H3.757V19.3356H4.03415V19.644H4.3421V19.9214H4.61925V20.5074H5.20436V20.785H5.48151V21.3709H6.34377V21.0933H6.65173V21.3709H6.92888V21.6485H6.65173V21.9568H7.20603V21.6485H7.51398V21.3709H7.20603V20.785H6.92888V20.5074H7.20603V20.785H7.51398V21.3709H7.79114V21.9568H7.20603V22.2343H7.51398V22.5119H7.20603V22.8202H7.51398V23.0978H7.79114V23.4062Z" fill="#1B1C1D"/>
<path d="M2.03249 23.4062H2.30964V23.0978H2.03249V23.4062Z" fill="#1B1C1D"/>
<path d="M12.9647 23.0978H13.2726V22.8202H12.9647V23.0978Z" fill="#1B1C1D"/>
<path d="M12.1024 23.0978H12.4104V22.8202H12.1024V23.0978Z" fill="#1B1C1D"/>
<path d="M5.20435 23.0977H4.89641V22.8201H4.61925V23.0977H4.3421V22.8201H4.61925V22.2343H4.89641V22.8201H5.20435V23.0977Z" fill="#1B1C1D"/>
<path d="M3.75699 23.0978H4.03414V22.8202H3.75699V23.0978Z" fill="#1B1C1D"/>
<path d="M1.44737 23.0978H1.72453V22.8202H1.44737V23.0978Z" fill="#1B1C1D"/>
<path d="M16.1365 22.8202H16.4445V22.5118H16.1365V22.8202Z" fill="#1B1C1D"/>
<path d="M13.5498 22.8202H13.8578V22.5118H13.5498V22.8202Z" fill="#1B1C1D"/>
<path d="M29.9943 22.5119H29.7171V22.2344H29.4092V21.9568H29.7171V22.2344H29.9943V22.5119Z" fill="#1B1C1D"/>
<path d="M26.5452 22.5118H26.8224V22.2343H26.5452V22.5118Z" fill="#1B1C1D"/>
<path d="M24.5128 22.5118H24.7899V22.2343H24.5128V22.5118Z" fill="#1B1C1D"/>
<path d="M9.23848 22.5119H8.93054V22.2344H8.65338V21.9568H8.93054V22.2344H9.23848V22.5119Z" fill="#1B1C1D"/>
<path d="M7.79114 22.5118H8.0683V22.2343H7.79114V22.5118Z" fill="#1B1C1D"/>
<path d="M3.75699 22.5118H4.03414V22.2343H3.75699V22.5118Z" fill="#1B1C1D"/>
<path d="M3.47983 22.5119H3.17189V22.2344H2.89473V21.9568H3.17189V22.2344H3.47983V22.5119Z" fill="#1B1C1D"/>
<path d="M11.2402 22.2344H11.5481V21.9568H11.2402V22.2344Z" fill="#1B1C1D"/>
<path d="M10.1008 22.2344H10.3779V21.9568H10.1008V22.2344Z" fill="#1B1C1D"/>
<path d="M25.9602 21.9568H26.2373V21.6484H25.9602V21.9568Z" fill="#1B1C1D"/>
<path d="M14.72 21.9568H14.9972V21.6484H14.72V21.9568Z" fill="#1B1C1D"/>
<path d="M8.37624 21.9567H8.0683V21.6484H8.37624V21.3708H8.65339V21.6484H8.37624V21.9567Z" fill="#1B1C1D"/>
<path d="M1.44737 21.9568H1.72453V21.6484H1.44737V21.9568Z" fill="#1B1C1D"/>
<path d="M12.6876 21.6484H12.9647V21.3708H12.6876V21.6484Z" fill="#1B1C1D"/>
<path d="M9.82355 21.6484H10.1007V21.3708H9.82355V21.6484Z" fill="#1B1C1D"/>
<path d="M8.93054 21.6484H9.23849V21.3708H8.93054V21.6484Z" fill="#1B1C1D"/>
<path d="M12.1024 21.3708H12.4104V21.0933H12.1024V21.3708Z" fill="#1B1C1D"/>
<path d="M10.963 21.3708H11.2402V21.0933H10.963V21.3708Z" fill="#1B1C1D"/>
<path d="M2.89473 21.3708H3.17189V21.0933H2.89473V21.3708Z" fill="#1B1C1D"/>
<path d="M2.30963 21.3708H2.58679V21.0933H2.30963V21.3708Z" fill="#1B1C1D"/>
<path d="M32.889 21.0932H33.1662V20.7849H32.889V21.0932Z" fill="#1B1C1D"/>
<path d="M31.996 21.0932H32.3039V20.7849H31.996V21.0932Z" fill="#1B1C1D"/>
<path d="M28.5469 21.0932H28.8241V20.7849H28.5469V21.0932Z" fill="#1B1C1D"/>
<path d="M9.23849 21.0932H9.51562V20.7849H9.23849V21.0932Z" fill="#1B1C1D"/>
<path d="M25.0979 20.7849H25.3751V20.5073H25.0979V20.7849Z" fill="#1B1C1D"/>
<path d="M8.65338 20.7849H8.93054V20.5073H8.65338V20.7849Z" fill="#1B1C1D"/>
<path d="M8.0683 20.7849H8.37624V20.5073H8.0683V20.7849Z" fill="#1B1C1D"/>
<path d="M6.65172 20.785H6.34376V20.5074H6.0666V20.2299H6.34376V20.5074H6.65172V20.785Z" fill="#1B1C1D"/>
<path d="M1.72452 20.7849H2.03247V20.5073H1.72452V20.7849Z" fill="#1B1C1D"/>
<path d="M11.2402 20.5074H11.5481V20.2299H11.2402V20.5074Z" fill="#1B1C1D"/>
<path d="M10.1008 20.5074H10.3779V20.2299H10.1008V20.5074Z" fill="#1B1C1D"/>
<path d="M0.585114 20.5074H0.86227V20.2299H0.585114V20.5074Z" fill="#1B1C1D"/>
<path d="M27.0995 20.2298H27.4075V19.9214H27.0995V20.2298Z" fill="#1B1C1D"/>
<path d="M5.48151 20.2298H5.75867V19.9214H5.48151V20.2298Z" fill="#1B1C1D"/>
<path d="M4.89641 20.2298H5.20436V19.9214H4.89641V20.2298Z" fill="#1B1C1D"/>
<path d="M2.58679 20.2298H2.89474V19.9214H2.58679V20.2298Z" fill="#1B1C1D"/>
<path d="M23.3734 19.9214H23.6506V19.6439H23.3734V19.9214Z" fill="#1B1C1D"/>
<path d="M12.6876 19.9214H12.9647V19.6439H12.6876V19.9214Z" fill="#1B1C1D"/>
<path d="M11.2402 19.9214H11.5481V19.6439H11.2402V19.9214Z" fill="#1B1C1D"/>
<path d="M9.23849 19.9214H9.51562V19.6439H9.23849V19.9214Z" fill="#1B1C1D"/>
<path d="M8.0683 19.9214H8.37624V19.6439H8.0683V19.9214Z" fill="#1B1C1D"/>
<path d="M7.20602 19.9214H7.51397V19.6439H7.20602V19.9214Z" fill="#1B1C1D"/>
<path d="M6.92887 19.9215H6.65172V19.644H6.34377V19.3356H6.65172V19.644H6.92887V19.9215Z" fill="#1B1C1D"/>
<path d="M1.72452 19.9214H2.03247V19.6439H1.72452V19.9214Z" fill="#1B1C1D"/>
<path d="M10.1008 19.644H10.3779V19.3356H10.1008V19.644Z" fill="#1B1C1D"/>
<path d="M6.06661 19.644H5.75867V19.3356H5.48151V19.058H5.20436V18.7805H5.48151V19.058H5.75867V19.3356H6.06661V19.644Z" fill="#1B1C1D"/>
<path d="M22.7883 19.3356H23.0654V19.058H22.7883V19.3356Z" fill="#1B1C1D"/>
<path d="M11.2402 19.3356H11.5481V19.058H11.2402V19.3356Z" fill="#1B1C1D"/>
<path d="M10.6859 19.3356H10.963V19.058H10.6859V19.3356Z" fill="#1B1C1D"/>
<path d="M4.61925 19.3356H4.89641V19.058H4.61925V19.3356Z" fill="#1B1C1D"/>
<path d="M0 19.3356H0.307953V19.058H2.42617e-08L0 19.3356Z" fill="#1B1C1D"/>
<path d="M12.1024 19.058H12.4104V18.7805H12.1024V19.058Z" fill="#1B1C1D"/>
<path d="M8.93054 19.058H9.23849V18.7805H8.93054V19.058Z" fill="#1B1C1D"/>
<path d="M7.20602 19.058H7.51397V18.7805H7.20602V19.058Z" fill="#1B1C1D"/>
<path d="M6.92887 19.0579H6.65172V18.7804H6.34376V18.472H6.0666V18.1945H6.34376V18.472H6.65172V18.7804H6.92887V19.0579Z" fill="#1B1C1D"/>
<path d="M4.03415 19.058H4.3421V18.7805H4.03415V19.058Z" fill="#1B1C1D"/>
<path d="M3.47983 19.058H3.75699V18.7805H3.47983V19.058Z" fill="#1B1C1D"/>
<path d="M1.72452 19.058H2.03247V18.7805H1.72452V19.058Z" fill="#1B1C1D"/>
<path d="M0.862259 19.058H1.17021V18.7805H0.862259V19.058Z" fill="#1B1C1D"/>
<path d="M27.0995 18.7805H27.4075V18.472H27.0995V18.7805Z" fill="#1B1C1D"/>
<path d="M15.2743 18.7805H15.5823V18.472H15.2743V18.7805Z" fill="#1B1C1D"/>
<path d="M8.0683 18.7805H8.37624V18.472H8.0683V18.7805Z" fill="#1B1C1D"/>
<path d="M4.61925 18.7805H4.89641V18.472H4.61925V18.7805Z" fill="#1B1C1D"/>
<path d="M2.89473 18.7805H3.17189V18.472H2.89473V18.7805Z" fill="#1B1C1D"/>
<path d="M21.3409 18.472H21.618V18.1945H21.3409V18.472Z" fill="#1B1C1D"/>
<path d="M11.8252 18.472H12.1024V18.1945H11.8252V18.472Z" fill="#1B1C1D"/>
<path d="M3.47983 18.472H3.75699V18.1945H3.47983V18.472Z" fill="#1B1C1D"/>
<path d="M28.8241 18.1945H29.1321V17.917H28.8241V18.1945Z" fill="#1B1C1D"/>
<path d="M24.7899 18.1945H25.0979V17.917H24.7899V18.1945Z" fill="#1B1C1D"/>
<path d="M10.963 18.1945H11.2402V17.917H10.963V18.1945Z" fill="#1B1C1D"/>
<path d="M10.3779 18.1945H10.6859V17.917H10.3779V18.1945Z" fill="#1B1C1D"/>
<path d="M6.92886 18.1945H7.20602V17.917H6.92886V18.1945Z" fill="#1B1C1D"/>
<path d="M4.3421 18.1945H4.61925V17.917H4.3421V18.1945Z" fill="#1B1C1D"/>
<path d="M2.89473 18.1945H3.17189V17.917H2.89473V18.1945Z" fill="#1B1C1D"/>
<path d="M2.30963 18.1945H2.58679V17.917H2.30963V18.1945Z" fill="#1B1C1D"/>
<path d="M0.862259 18.1945H1.17021V17.917H0.862259V18.1945Z" fill="#1B1C1D"/>
<path d="M0 18.1945H0.307953V17.917H2.42616e-08L0 18.1945Z" fill="#1B1C1D"/>
<path d="M10.1008 17.917H9.82356V17.6086H9.51562V17.331H9.23849V17.0535H9.51562V17.331H9.82356V17.6086H10.1008V17.917Z" fill="#1B1C1D"/>
<path d="M6.06662 17.917H5.75867V17.331H5.48151V17.0535H5.20436V16.7452H4.61925V16.4676H4.3421V16.1592H4.61925V16.4676H5.20436V16.7452H5.75867V17.331H6.06663L6.06662 17.917Z" fill="#1B1C1D"/>
<path d="M4.89641 17.9171H5.20436V17.6086H4.89641V17.9171Z" fill="#1B1C1D"/>
<path d="M4.03414 17.917H3.75699V17.6086H3.47983V17.331H3.17189V17.0535H3.47983V17.331H3.75699V17.6086H4.03414V17.917Z" fill="#1B1C1D"/>
<path d="M1.72452 17.9171H2.03247V17.6086H1.72452V17.9171Z" fill="#1B1C1D"/>
<path d="M22.7883 17.6086H23.0654V17.3311H22.7883V17.6086Z" fill="#1B1C1D"/>
<path d="M7.79114 17.6086H8.0683V17.3311H7.79114V17.6086Z" fill="#1B1C1D"/>
<path d="M6.65172 17.331H6.92887V17.0535H6.65172V17.331Z" fill="#1B1C1D"/>
<path d="M4.3421 17.331H4.61925V17.0535H4.3421V17.331Z" fill="#1B1C1D"/>
<path d="M2.03249 17.331H2.30964V17.0535H2.03249V17.331Z" fill="#1B1C1D"/>
<path d="M0.585114 17.331H0.86227V17.0535H0.585114V17.331Z" fill="#1B1C1D"/>
<path d="M7.20602 17.0534H7.51397V16.7451H7.20602V17.0534Z" fill="#1B1C1D"/>
<path d="M2.58679 17.0534H2.89474V16.7451H2.58679V17.0534Z" fill="#1B1C1D"/>
<path d="M1.44737 17.0534H1.72453V16.7451H1.44737V17.0534Z" fill="#1B1C1D"/>
<path d="M8.93054 16.7452H8.65339V16.4676H8.37624V16.1592H8.65339V16.4676H8.93054V16.7452Z" fill="#1B1C1D"/>
<path d="M4.03414 16.7452H3.75699V16.4676H3.47983V16.1592H3.75699V16.4676H4.03414V16.7452Z" fill="#1B1C1D"/>
<path d="M10.3779 16.4676H10.6859V16.1592H10.3779V16.4676Z" fill="#1B1C1D"/>
<path d="M6.92886 16.4676H7.20602V16.1592H6.92886V16.4676Z" fill="#1B1C1D"/>
<path d="M6.06662 16.4676H6.34377V16.1592H6.06662V16.4676Z" fill="#1B1C1D"/>
<path d="M11.8252 16.1592H12.1024V15.8817H11.8252V16.1592Z" fill="#1B1C1D"/>
<path d="M9.82355 16.1592H10.1007V15.8817H9.82355V16.1592Z" fill="#1B1C1D"/>
<path d="M5.48151 16.1592H5.75867V15.8817H5.48151V16.1592Z" fill="#1B1C1D"/>
<path d="M2.58679 16.1592H2.89474V15.8817H2.58679V16.1592Z" fill="#1B1C1D"/>
<path d="M1.44737 16.1592H1.72453V15.8817H1.44737V16.1592Z" fill="#1B1C1D"/>
<path d="M7.51398 15.8817H7.79114V15.6041H7.51398V15.8817Z" fill="#1B1C1D"/>
<path d="M4.3421 15.8817H4.61925V15.6041H4.3421V15.8817Z" fill="#1B1C1D"/>
<path d="M3.47983 15.8817H3.75699V15.6041H3.47983V15.8817Z" fill="#1B1C1D"/>
<path d="M0 15.8817H0.307954V15.6041H2.42711e-08L0 15.8817Z" fill="#1B1C1D"/>
<path d="M8.37624 15.6041H8.65339V15.2957H8.37624V15.6041Z" fill="#1B1C1D"/>
<path d="M1.17021 15.6041H1.44736V15.2957H1.17021V15.6041Z" fill="#1B1C1D"/>
<path d="M9.23849 15.2957H9.51562V15.0182H9.23849V15.2957Z" fill="#1B1C1D"/>
<path d="M7.79113 15.2956H7.51397V15.0182H7.20602V14.7406H7.51397V15.0182H7.79113V15.2956Z" fill="#1B1C1D"/>
<path d="M6.65172 15.2956H6.34377V15.0182H6.06662V14.7406H6.34377V15.0182H6.65172V15.2956Z" fill="#1B1C1D"/>
<path d="M5.20436 15.2957H5.48151V15.0182H5.20436V15.2957Z" fill="#1B1C1D"/>
<path d="M4.03415 15.2957H4.3421V15.0182H4.03415V15.2957Z" fill="#1B1C1D"/>
<path d="M3.17189 15.2957H3.47983V15.0182H3.17189V15.2957Z" fill="#1B1C1D"/>
<path d="M2.30963 15.2957H2.58679V15.0182H2.30963V15.2957Z" fill="#1B1C1D"/>
<path d="M27.9618 15.0182H28.2698V14.7406H27.9619L27.9618 15.0182Z" fill="#1B1C1D"/>
<path d="M8.65338 14.7407H8.93054V14.4323H8.65338V14.7407Z" fill="#1B1C1D"/>
<path d="M5.20436 14.4322H5.48151V14.1547H5.20436V14.4322Z" fill="#1B1C1D"/>
<path d="M3.75699 14.4322H4.03414V14.1547H3.75699V14.4322Z" fill="#1B1C1D"/>
<path d="M1.72452 14.4322H2.03247V14.1547H1.72452V14.4322Z" fill="#1B1C1D"/>
<path d="M11.2402 14.1547H11.5481V13.8772H11.2402V14.1547Z" fill="#1B1C1D"/>
<path d="M8.37624 14.1547H8.0683V13.8773H7.79114V13.5688H8.0683V13.8773H8.37624V14.1547Z" fill="#1B1C1D"/>
<path d="M4.61925 14.1547H4.89641V13.5688H4.61925V14.1547Z" fill="#1B1C1D"/>
<path d="M2.89473 14.1547H3.17189V13.8772H2.89473V14.1547Z" fill="#1B1C1D"/>
<path d="M1.17021 14.1547H1.44736L1.44737 13.8772H1.17021V14.1547Z" fill="#1B1C1D"/>
<path d="M10.6859 13.8773H10.963V13.5688H10.6859V13.8773Z" fill="#1B1C1D"/>
<path d="M9.51561 13.8773H9.82355V13.5688H9.51561V13.8773Z" fill="#1B1C1D"/>
<path d="M27.6847 13.5688H27.9619V13.2913H27.6847V13.5688Z" fill="#1B1C1D"/>
<path d="M8.65338 13.5688H8.93054V13.2913H8.65338V13.5688Z" fill="#1B1C1D"/>
<path d="M7.51397 13.5688H7.20602V13.2912H6.92886V12.9829H7.20602V13.2912H7.51397V13.5688Z" fill="#1B1C1D"/>
<path d="M5.75867 13.5688H6.06662V13.2913H5.75867V13.5688Z" fill="#1B1C1D"/>
<path d="M5.48151 13.2912H5.20436V12.9829H4.89641V12.7053H4.61925V12.4277H4.89641V12.7053H5.20436V12.9829H5.48151V13.2912Z" fill="#1B1C1D"/>
<path d="M2.03249 13.2912H2.30964V12.9829H2.03249V13.2912Z" fill="#1B1C1D"/>
<path d="M33.1662 12.9829H33.4434V12.7053H33.1662V12.9829Z" fill="#1B1C1D"/>
<path d="M12.9647 12.9829H13.2726V12.7053H12.9647V12.9829Z" fill="#1B1C1D"/>
<path d="M3.75699 12.9829H4.03414V12.7053H3.75699V12.9829Z" fill="#1B1C1D"/>
<path d="M6.92886 12.7053H7.20602V12.4277H6.92886V12.7053Z" fill="#1B1C1D"/>
<path d="M1.72452 12.7053H2.03247V12.4277H1.72452V12.7053Z" fill="#1B1C1D"/>
<path d="M1.17021 12.7053H1.44737V12.4277H1.17021V12.7053Z" fill="#1B1C1D"/>
<path d="M34.6136 12.4277H34.8907V12.1194H34.6136V12.4277Z" fill="#1B1C1D"/>
<path d="M27.0995 12.4277H27.4075V12.1194H27.0995V12.4277Z" fill="#1B1C1D"/>
<path d="M2.58679 12.1195H2.89474V11.8419H2.58679V12.1195Z" fill="#1B1C1D"/>
<path d="M12.6876 11.8419H12.9647V11.5643H12.6876V11.8419Z" fill="#1B1C1D"/>
<path d="M9.51561 11.8419H9.82355V11.5643H9.51561V11.8419Z" fill="#1B1C1D"/>
<path d="M3.75699 11.8419H4.03414V11.5643H3.75699V11.8419Z" fill="#1B1C1D"/>
<path d="M30.2714 11.5643H30.5794V11.2559H30.2714V11.5643Z" fill="#1B1C1D"/>
<path d="M8.0683 11.5643H8.37624V11.2559H8.0683V11.5643Z" fill="#1B1C1D"/>
<path d="M6.06662 11.5643H6.34377V11.2559H6.06662V11.5643Z" fill="#1B1C1D"/>
<path d="M31.996 11.2559H32.3039V10.9784H31.996V11.2559Z" fill="#1B1C1D"/>
<path d="M8.65338 11.2559H8.93054V10.9784H8.65338V11.2559Z" fill="#1B1C1D"/>
<path d="M6.92886 11.2559H7.20602V10.9784H6.92886V11.2559Z" fill="#1B1C1D"/>
<path d="M4.89641 11.2559H5.20436V10.9784H4.89641V11.2559Z" fill="#1B1C1D"/>
<path d="M3.17189 11.2559H3.47983V10.9784H3.17189V11.2559Z" fill="#1B1C1D"/>
<path d="M1.72452 11.2559H2.03247V10.9784H1.72452V11.2559Z" fill="#1B1C1D"/>
<path d="M31.1337 10.9784H31.4417V10.7008H31.1337V10.9784Z" fill="#1B1C1D"/>
<path d="M21.926 10.9784H22.2032V10.7008H21.926V10.9784Z" fill="#1B1C1D"/>
<path d="M0.585114 10.9784H0.86227V10.7008H0.585114V10.9784Z" fill="#1B1C1D"/>
<path d="M2.89473 10.7009H3.17189V10.3925H2.89473V10.7009Z" fill="#1B1C1D"/>
<path d="M27.6847 10.3925H27.9619V10.115H27.6847V10.3925Z" fill="#1B1C1D"/>
<path d="M21.0637 10.3925H21.3409V10.115H21.0637V10.3925Z" fill="#1B1C1D"/>
<path d="M12.1024 10.3925H12.4104V10.115H12.1024V10.3925Z" fill="#1B1C1D"/>
<path d="M6.65172 10.3925H6.92887V10.115H6.65172V10.3925Z" fill="#1B1C1D"/>
<path d="M26.5452 10.1149H26.8224V9.80652H26.5452V10.1149Z" fill="#1B1C1D"/>
<path d="M12.9647 10.1149H13.2726V9.80652H12.9647V10.1149Z" fill="#1B1C1D"/>
<path d="M5.48151 10.1149H5.75867V9.80652H5.48151V10.1149Z" fill="#1B1C1D"/>
<path d="M4.3421 10.1149H4.61925V9.80652H4.3421V10.1149Z" fill="#1B1C1D"/>
<path d="M2.30963 10.1149H2.58679V9.80652H2.30963V10.1149Z" fill="#1B1C1D"/>
<path d="M33.1662 9.8065H33.4434V9.52893H33.1662V9.8065Z" fill="#1B1C1D"/>
<path d="M3.75699 9.8065H4.03414V9.52893H3.75699V9.8065Z" fill="#1B1C1D"/>
<path d="M5.20436 9.52899H5.48151V9.25146H5.20436V9.52899Z" fill="#1B1C1D"/>
<path d="M2.03249 9.52899H2.30964V9.25146H2.03249V9.52899Z" fill="#1B1C1D"/>
<path d="M1.44737 9.52899H1.72452V9.25146H1.44737V9.52899Z" fill="#1B1C1D"/>
<path d="M24.7899 9.2515H25.0979V8.94312H24.7899V9.2515Z" fill="#1B1C1D"/>
<path d="M3.47983 9.2515H3.75699V8.94312H3.47983V9.2515Z" fill="#1B1C1D"/>
<path d="M30.5794 8.94307H30.8565V8.66553H30.5794V8.94307Z" fill="#1B1C1D"/>
<path d="M26.2373 8.94307H26.5452V8.66553H26.2373V8.94307Z" fill="#1B1C1D"/>
<path d="M3.17189 8.94302H2.89474V8.66548H2.58679V8.38794H2.89474V8.66548H3.17189V8.94302Z" fill="#1B1C1D"/>
<path d="M0.585114 8.94307H0.86227V8.66553H0.585114V8.94307Z" fill="#1B1C1D"/>
<path d="M29.4092 8.66548H29.7171V8.38794H29.4092V8.66548Z" fill="#1B1C1D"/>
<path d="M1.44737 8.66548H1.72452V8.38794H1.44737V8.66548Z" fill="#1B1C1D"/>
<path d="M28.8241 8.38797H29.1321V8.07959H28.8241V8.38797Z" fill="#1B1C1D"/>
<path d="M17.8919 8.38797H18.1691V8.07959H17.8919V8.38797Z" fill="#1B1C1D"/>
<path d="M4.61925 8.38797H4.89641V8.07959H4.61925V8.38797Z" fill="#1B1C1D"/>
<path d="M33.1662 8.07954H33.4434V7.802H33.1662V8.07954Z" fill="#1B1C1D"/>
<path d="M27.9619 8.07954H28.2698V7.802H27.9619V8.07954Z" fill="#1B1C1D"/>
<path d="M2.03249 8.07954H2.30964V7.802H2.03249V8.07954Z" fill="#1B1C1D"/>
<path d="M0.307953 8.07954H0.585104V7.802H0.307953V8.07954Z" fill="#1B1C1D"/>
<path d="M27.0995 7.80208H27.4075V7.52454H27.0995V7.80208Z" fill="#1B1C1D"/>
<path d="M1.17021 7.80208H1.44737V7.52454H1.17021V7.80208Z" fill="#1B1C1D"/>
<path d="M26.5452 7.52457H26.8224V7.21619H26.5452V7.52457Z" fill="#1B1C1D"/>
<path d="M16.4445 7.52457H16.7217V7.21619H16.4445V7.52457Z" fill="#1B1C1D"/>
<path d="M6.06662 7.52457H6.34377V7.21619H6.06662V7.52457Z" fill="#1B1C1D"/>
<path d="M4.03415 7.52457H4.3421V7.21619H4.03415V7.52457Z" fill="#1B1C1D"/>
<path d="M3.17189 7.52452H2.89474V7.21614H2.58679V6.9386H2.89474V7.21614H3.17189V7.52452Z" fill="#1B1C1D"/>
<path d="M25.6523 7.21614H25.9602V6.9386H25.6523V7.21614Z" fill="#1B1C1D"/>
<path d="M1.44738 7.21617H1.17022V6.93863H0.862274V6.63025H1.17022V6.93863H1.44738V7.21617Z" fill="#1B1C1D"/>
<path d="M26.5452 6.6302H26.8224V6.35266H26.5452V6.6302Z" fill="#1B1C1D"/>
<path d="M25.0979 6.6302H25.3751V6.35266H25.0979V6.6302Z" fill="#1B1C1D"/>
<path d="M24.7899 6.35265H24.5128V6.07511H24.2356V5.76672H24.5128V6.07511H24.7899V6.35265Z" fill="#1B1C1D"/>
<path d="M19.6164 6.35262H19.8936V6.07507H19.6164V6.35262Z" fill="#1B1C1D"/>
<path d="M1.72452 6.35262H2.03247V6.07507H1.72452V6.35262Z" fill="#1B1C1D"/>
<path d="M0.307953 6.35262H0.585103V6.07507H0.307953V6.35262Z" fill="#1B1C1D"/>
<path d="M21.0637 6.07511H21.3409V5.76672H21.0637V6.07511Z" fill="#1B1C1D"/>
<path d="M3.47983 6.0751L3.75699 6.07511V5.76672H3.47983V6.0751Z" fill="#1B1C1D"/>
<path d="M1.17021 6.0751H1.44737V5.76672H1.17021V6.0751Z" fill="#1B1C1D"/>
<path d="M22.7883 5.76668H23.0654V5.48914H22.7883V5.76668Z" fill="#1B1C1D"/>
<path d="M17.0296 5.76668H17.3067V5.48914H17.0296V5.76668Z" fill="#1B1C1D"/>
<path d="M16.1365 5.76668H16.4445V5.48914H16.1365V5.76668Z" fill="#1B1C1D"/>
<path d="M0.585114 5.76668H0.862271V5.48914H0.585114V5.76668Z" fill="#1B1C1D"/>
<path d="M0 5.76668H0.307954V5.48914H2.42616e-08L0 5.76668Z" fill="#1B1C1D"/>
<path d="M17.5839 5.48921H17.8919V5.21167H17.5839V5.48921Z" fill="#1B1C1D"/>
<path d="M3.75699 5.48921H4.03414V5.21167H3.75699V5.48921Z" fill="#1B1C1D"/>
<path d="M2.89473 5.48921H3.17189V5.21167H2.89473V5.48921Z" fill="#1B1C1D"/>
<path d="M19.6164 5.2117H19.8936V4.90332H19.6164V5.2117Z" fill="#1B1C1D"/>
<path d="M18.4462 5.2117H18.7541V4.90332H18.4462V5.2117Z" fill="#1B1C1D"/>
<path d="M23.9277 4.90327H24.2356V4.62573H23.9277V4.90327Z" fill="#1B1C1D"/>
<path d="M2.58679 4.90327H2.89474V4.62573H2.58679V4.90327Z" fill="#1B1C1D"/>
<path d="M0.585114 4.90327H0.862271V4.62573H0.585114V4.90327Z" fill="#1B1C1D"/>
<path d="M16.7217 4.62572H17.0296V4.03979H16.7217V4.62572Z" fill="#1B1C1D"/>
<path d="M15.5822 4.62569H15.8594V4.34814H15.5822V4.62569Z" fill="#1B1C1D"/>
<path d="M14.4121 4.6257H14.72V4.34814H14.4121V4.6257Z" fill="#1B1C1D"/>
<path d="M5.20436 4.6257H5.48151V4.34814H5.20436V4.6257Z" fill="#1B1C1D"/>
<path d="M1.44737 4.6257H1.72452V4.34814H1.44737V4.6257Z" fill="#1B1C1D"/>
<path d="M0 4.6257H0.307954V4.34814H2.42616e-08L0 4.6257Z" fill="#1B1C1D"/>
<path d="M21.3409 4.34818H21.618V4.03979H21.3409V4.34818Z" fill="#1B1C1D"/>
<path d="M2.03249 4.34817H2.30964V4.03979H2.03249V4.34817Z" fill="#1B1C1D"/>
<path d="M22.7883 4.03976H23.0654V3.76221H22.7883V4.03976Z" fill="#1B1C1D"/>
<path d="M20.7558 3.76223H21.0637V3.45386H20.7558V3.76223Z" fill="#1B1C1D"/>
<path d="M12.9647 3.76223H13.2726V3.45386H12.9647V3.76223Z" fill="#1B1C1D"/>
<path d="M0.862274 3.76223H1.17022V3.45386H0.862274V3.76223Z" fill="#1B1C1D"/>
<path d="M0.307953 3.45393H0.585103V3.17639H0.307953V3.45393Z" fill="#1B1C1D"/>
<path d="M16.1365 3.17635H16.4445V2.8988H16.1365V3.17635Z" fill="#1B1C1D"/>
<path d="M14.72 3.17635H14.9972V2.8988H14.72V3.17635Z" fill="#1B1C1D"/>
<path d="M19.3084 2.89884H19.6164V2.59045H19.3084V2.89884Z" fill="#1B1C1D"/>
<path d="M12.6876 2.89884H12.9647V2.59045H12.6876V2.89884Z" fill="#1B1C1D"/>
<path d="M11.8252 2.89884H12.1024V2.59045H11.8252V2.89884Z" fill="#1B1C1D"/>
<path d="M3.47983 2.89884H3.75699V2.59045H3.47983V2.89884Z" fill="#1B1C1D"/>
<path d="M2.58679 2.89884H2.89474V2.59045H2.58679V2.89884Z" fill="#1B1C1D"/>
<path d="M1.72452 2.89884H2.03247V2.59045H1.72452V2.89884Z" fill="#1B1C1D"/>
<path d="M1.17022 2.8988H0.862271V2.59042H0.585114V2.31287H0.862271V2.59042H1.17022V2.8988Z" fill="#1B1C1D"/>
<path d="M10.963 2.59041H11.2402V2.31287H10.963V2.59041Z" fill="#1B1C1D"/>
<path d="M18.4462 2.31283H18.7541V2.03528H18.4462V2.31283Z" fill="#1B1C1D"/>
<path d="M14.4121 2.31283H14.72V2.03528H14.4121V2.31283Z" fill="#1B1C1D"/>
<path d="M8.0683 2.31283H8.37624V2.03528H8.0683V2.31283Z" fill="#1B1C1D"/>
<path d="M8.65338 2.03531H8.93054V1.72693H8.65338V2.03531Z" fill="#1B1C1D"/>
<path d="M2.03249 2.03531H2.30964V1.72693H2.03249V2.03531Z" fill="#1B1C1D"/>
<path d="M0.307953 2.03531H0.585103L0.585104 1.72693H0.307953V2.03531Z" fill="#1B1C1D"/>
<path d="M21.0637 1.72688H21.3409V1.44934H21.0637V1.72688Z" fill="#1B1C1D"/>
<path d="M1.72452 1.72696H1.44737V1.44943H1.17021V1.17188H1.44737V1.44943H1.72452V1.72696Z" fill="#1B1C1D"/>
<path d="M0.585114 1.1719H0.86227V0.863525H0.585114V1.1719Z" fill="#1B1C1D"/>
<path d="M23.6506 0.277544H23.9277V2.42242e-08L23.6506 0V0.277544Z" fill="#1B1C1D"/>
<path d="M0.862274 0.277544H1.17022V2.69251e-08L0.862274 0V0.277544Z" fill="#1B1C1D"/>
</g>
<path d="M11 19H15.5255L24.636 34.8988V19H28.5065V40.1388H23.8619L14.8705 24.6867V40.1388H11V19Z" fill="#1B1C1D"/>
<path d="M34.0001 17C36.2092 17 38 15.2091 38 13.0001C38 10.7909 36.2092 9 34.0001 9C31.7908 9 30 10.7909 30 13.0001C30 15.2091 31.7908 17 34.0001 17Z" fill="#1B1C1D"/>
<defs>
<linearGradient id="paint0_linear_8528_5118" x1="0" y1="25" x2="50" y2="25" gradientUnits="userSpaceOnUse">
<stop stop-color="#4FFF1A"/>
<stop offset="0.950477" stop-color="#D4FF5B"/>
</linearGradient>
<clipPath id="clip0_8528_5118">
<rect width="40.1869" height="50" fill="white"/>
</clipPath>
</defs>
</svg>
