<svg width="430" height="535" viewBox="0 0 430 535" fill="none" xmlns="http://www.w3.org/2000/svg">
<g clip-path="url(#clip0_8522_1416)">
<path d="M197.374 534.548H200.669V531.579H197.374V534.548Z" fill="#05B200"/>
<path d="M206.6 525.309H209.895V522.01H206.6V525.309Z" fill="#05B200"/>
<path d="M200.669 522.01H203.635V519.04H200.669V522.01Z" fill="#05B200"/>
<path d="M188.148 522.01H191.443V519.04H188.148V522.01Z" fill="#05B200"/>
<path d="M240.539 519.04H243.834V516.07H240.539V519.04Z" fill="#05B200"/>
<path d="M225.382 519.04H228.348V516.07H225.382V519.04Z" fill="#05B200"/>
<path d="M253.061 512.771H250.095V509.801H246.8V506.831H243.834V512.771H237.574V509.801H240.539V506.831H243.834V503.531H246.8V500.562H250.095V503.531H246.8V506.831H250.095V509.801H253.061V512.771Z" fill="#05B200"/>
<path d="M212.861 512.771H216.156V509.801H212.861V512.771Z" fill="#05B200"/>
<path d="M188.148 512.771H185.182V509.801H182.217V506.831H185.182V509.801H188.148V512.771Z" fill="#05B200"/>
<path d="M206.6 509.801H209.895V506.831H206.6V509.801Z" fill="#05B200"/>
<path d="M222.087 506.831H225.382V503.531H222.087V506.831Z" fill="#05B200"/>
<path d="M228.348 503.531H231.313V500.562H228.348V503.531Z" fill="#05B200"/>
<path d="M237.574 500.562H240.539V497.592H237.574V500.562Z" fill="#05B200"/>
<path d="M219.122 500.562H216.156V497.592H212.861V494.292H209.895V491.323H212.861V494.292H216.156V497.592H219.122V500.562Z" fill="#05B200"/>
<path d="M200.669 500.562H203.635V497.592H200.669V500.562Z" fill="#05B200"/>
<path d="M250.095 497.592H253.061V494.292H250.095V497.592Z" fill="#05B200"/>
<path d="M191.443 494.292H194.409V491.323H191.443V494.292Z" fill="#05B200"/>
<path d="M178.922 494.292H182.217V491.323H178.922V494.292Z" fill="#05B200"/>
<path d="M246.8 491.323H250.095V488.023H246.8V491.323Z" fill="#05B200"/>
<path d="M237.574 491.323H240.539V488.023H237.574V491.323Z" fill="#05B200"/>
<path d="M228.348 491.323H231.313V488.023H228.348V491.323Z" fill="#05B200"/>
<path d="M222.087 491.323H225.382V488.023H222.087V491.323Z" fill="#05B200"/>
<path d="M200.669 491.323H203.635V488.023H200.669V491.323Z" fill="#05B200"/>
<path d="M228.348 485.053H231.313V482.084H228.348V485.053Z" fill="#05B200"/>
<path d="M222.087 485.053H225.382V482.084H222.087V485.053Z" fill="#05B200"/>
<path d="M246.8 482.084H250.095V478.784H246.8V482.084Z" fill="#05B200"/>
<path d="M237.574 482.084H240.539V478.784H237.574V482.084Z" fill="#05B200"/>
<path d="M216.156 482.084H219.122V478.784H216.156V482.084Z" fill="#05B200"/>
<path d="M197.374 482.084H200.669V478.784H197.374V482.084Z" fill="#05B200"/>
<path d="M175.956 482.084H178.922V478.784H175.956V482.084Z" fill="#05B200"/>
<path d="M212.861 478.784H209.895V475.814H206.6V472.844H209.895V475.814H212.861V478.784Z" fill="#05B200"/>
<path d="M188.148 478.784H191.443V475.814H188.148V478.784Z" fill="#05B200"/>
<path d="M262.287 475.814H265.252V472.844H262.287V475.814Z" fill="#05B200"/>
<path d="M228.348 475.814H231.313V472.844H228.348V475.814Z" fill="#05B200"/>
<path d="M194.409 475.814H197.374V472.844H194.409V475.814Z" fill="#05B200"/>
<path d="M246.8 472.844H243.834V469.545H240.539V466.575H243.834V469.545H246.8V472.844Z" fill="#05B200"/>
<path d="M182.217 472.844H178.922V469.545H175.956V466.575H178.922V469.545H182.217V472.844Z" fill="#05B200"/>
<path d="M225.382 469.545H228.348V466.575H225.382V469.545Z" fill="#05B200"/>
<path d="M206.6 469.545H203.635V466.575H200.669V463.605H203.635V466.575H206.6V469.545Z" fill="#05B200"/>
<path d="M191.443 469.545H194.409V466.575H191.443V469.545Z" fill="#05B200"/>
<path d="M231.313 466.575H234.608V463.605H231.313V466.575Z" fill="#05B200"/>
<path d="M188.148 466.575H185.182V463.605H182.217V460.306H185.182V463.605H188.148V466.575Z" fill="#05B200"/>
<path d="M212.861 463.605H209.895V460.306H206.6V457.336H209.895V460.306H212.861V463.605Z" fill="#05B200"/>
<path d="M166.73 463.605H169.696V460.306H166.73V463.605Z" fill="#05B200"/>
<path d="M327.199 460.306H330.165V457.336H327.2L327.199 460.306Z" fill="#05B200"/>
<path d="M222.087 460.306H225.382V457.336H222.087V460.306Z" fill="#05B200"/>
<path d="M197.374 460.306H200.669V457.336H197.374V460.306Z" fill="#05B200"/>
<path d="M175.956 460.306H178.922V457.336H175.956V460.306Z" fill="#05B200"/>
<path d="M160.469 460.306H163.435V457.336H160.469V460.306Z" fill="#05B200"/>
<path d="M246.8 457.336H250.095V454.036H246.8V457.336Z" fill="#05B200"/>
<path d="M228.348 457.336H231.313V454.036H228.348V457.336Z" fill="#05B200"/>
<path d="M188.148 457.336H191.443V454.036H188.148V457.336Z" fill="#05B200"/>
<path d="M259.321 454.036H262.287V451.067H259.321V454.036Z" fill="#05B200"/>
<path d="M234.608 454.036H237.574V451.067H234.608V454.036Z" fill="#05B200"/>
<path d="M219.122 454.036H222.087V451.067H219.122V454.036Z" fill="#05B200"/>
<path d="M206.6 454.036H209.895V451.067H206.6V454.036Z" fill="#05B200"/>
<path d="M194.409 454.036H197.374V451.067H194.409V454.036Z" fill="#05B200"/>
<path d="M182.217 454.036H178.922V451.067H175.956V448.097H172.661V444.797H169.696V441.827H172.661V444.797H175.956V448.097H178.922V451.067H182.217V454.036Z" fill="#05B200"/>
<path d="M154.209 454.036H157.504V451.067H154.209V454.036Z" fill="#05B200"/>
<path d="M144.983 454.036H148.278V451.067H144.983V454.036Z" fill="#05B200"/>
<path d="M253.061 451.067H256.026V448.097H253.061V451.067Z" fill="#05B200"/>
<path d="M231.313 448.097H228.348V444.797H225.382V441.827H222.087V438.858H219.122V435.558H222.087V438.858H225.382V441.827H228.348V444.797H231.313V448.097Z" fill="#05B200"/>
<path d="M216.156 448.097H219.122V444.797H216.156V448.097Z" fill="#05B200"/>
<path d="M138.722 448.097H142.017V444.797H138.722V448.097Z" fill="#05B200"/>
<path d="M129.496 448.097H132.791V444.797H129.496V448.097Z" fill="#05B200"/>
<path d="M206.6 444.797H209.895V441.827H206.6V444.797Z" fill="#05B200"/>
<path d="M188.148 444.797H191.443V441.827H188.148V444.797Z" fill="#05B200"/>
<path d="M148.278 444.797H151.243V441.827H148.278V444.797Z" fill="#05B200"/>
<path d="M120.27 444.797H123.565V441.827H120.27V444.797Z" fill="#05B200"/>
<path d="M234.608 441.827H237.574V438.858H234.608V441.827Z" fill="#05B200"/>
<path d="M212.861 441.827H216.156V438.858H212.861V441.827Z" fill="#05B200"/>
<path d="M160.469 441.827H163.435V438.858H160.469V441.827Z" fill="#05B200"/>
<path d="M126.53 441.827H129.496V438.858H126.53V441.827Z" fill="#05B200"/>
<path d="M274.479 438.858H277.774V435.558H274.479V438.858Z" fill="#05B200"/>
<path d="M200.669 438.858H203.635V435.558H200.669V438.858Z" fill="#05B200"/>
<path d="M142.017 438.858H144.983V435.558H142.017V438.858Z" fill="#05B200"/>
<path d="M132.791 438.858H135.757V435.558H132.791V438.858Z" fill="#05B200"/>
<path d="M209.895 435.558H212.861V432.588H209.895V435.558Z" fill="#05B200"/>
<path d="M117.304 435.558H120.27V432.588H117.304V435.558Z" fill="#05B200"/>
<path d="M108.078 435.558H111.044V432.588H108.078V435.558Z" fill="#05B200"/>
<path d="M98.8518 435.558H101.817V432.588H98.8518V435.558Z" fill="#05B200"/>
<path d="M89.6257 435.558H92.5912V432.588H89.6257V435.558Z" fill="#05B200"/>
<path d="M37.2342 435.558H33.9392V432.588H30.9736V429.619H33.9392V432.588H37.2342V435.558Z" fill="#05B200"/>
<path d="M228.348 432.588H231.313V429.619H228.348V432.588Z" fill="#05B200"/>
<path d="M222.087 432.588H225.382V429.619H222.087V432.588Z" fill="#05B200"/>
<path d="M126.53 432.588H129.496V429.619H126.53V432.588Z" fill="#05B200"/>
<path d="M77.1044 432.588H80.3995V429.619H77.1044V432.588Z" fill="#05B200"/>
<path d="M71.1733 432.588H74.1389V429.619H71.1733V432.588Z" fill="#05B200"/>
<path d="M61.6177 432.588H64.9127V429.619H61.6177V432.588Z" fill="#05B200"/>
<path d="M46.4604 432.588H49.4259V429.619H46.4604V432.588Z" fill="#05B200"/>
<path d="M151.243 429.619H154.209V426.319H151.243V429.619Z" fill="#05B200"/>
<path d="M83.3651 429.619H86.3306V426.319H83.3651V429.619Z" fill="#05B200"/>
<path d="M15.4868 429.619H21.7474V426.319H18.4523V423.349H15.4868V429.619Z" fill="#05B200"/>
<path d="M212.861 426.319H216.156V423.349H212.861V426.319Z" fill="#05B200"/>
<path d="M188.148 426.319H191.443V423.349H188.148V426.319Z" fill="#05B200"/>
<path d="M138.722 426.319H142.017V423.349H138.722V426.319Z" fill="#05B200"/>
<path d="M296.226 423.349H299.191V420.05H296.226V423.349Z" fill="#05B200"/>
<path d="M240.539 423.349H243.834V420.049H240.539V423.349Z" fill="#05B200"/>
<path d="M203.635 423.349H206.6V420.049H203.635V423.349Z" fill="#05B200"/>
<path d="M111.044 423.349H114.339V420.049H111.044V423.349Z" fill="#05B200"/>
<path d="M95.5568 423.349H98.8518V420.049H95.5568V423.349Z" fill="#05B200"/>
<path d="M58.6521 423.349H61.6177V420.049H58.6521V423.349Z" fill="#05B200"/>
<path d="M234.608 420.049H237.574V417.08H234.608V420.049Z" fill="#05B200"/>
<path d="M228.348 420.049H231.313V417.08H228.348V420.049Z" fill="#05B200"/>
<path d="M182.217 420.049H185.182V417.08H182.217V420.049Z" fill="#05B200"/>
<path d="M169.696 420.049H172.661V417.08H169.696V420.049Z" fill="#05B200"/>
<path d="M105.112 420.049H108.078V417.08H105.112V420.049Z" fill="#05B200"/>
<path d="M77.1044 420.049H80.3995V417.08H77.1044V420.049Z" fill="#05B200"/>
<path d="M43.1653 420.049H46.4604V417.08H43.1653V420.049Z" fill="#05B200"/>
<path d="M219.122 417.08H222.087V414.11H219.122V417.08Z" fill="#05B200"/>
<path d="M30.9736 417.08H33.9392V414.11H30.9736V417.08Z" fill="#05B200"/>
<path d="M228.348 414.11H231.313V410.81H228.348V414.11Z" fill="#05B200"/>
<path d="M126.53 414.11H129.496V410.81H126.53V414.11Z" fill="#05B200"/>
<path d="M114.339 414.11H117.304V410.81H114.339V414.11Z" fill="#05B200"/>
<path d="M92.5912 414.11H95.5568V410.81H92.5912V414.11Z" fill="#05B200"/>
<path d="M311.713 410.81H314.678V407.841H311.713V410.81Z" fill="#05B200"/>
<path d="M191.443 410.81H194.409V407.841H191.443V410.81Z" fill="#05B200"/>
<path d="M80.3995 410.81H83.3651V407.841H80.3995V410.81Z" fill="#05B200"/>
<path d="M61.6177 410.81H64.9127V407.841H61.6177V410.81Z" fill="#05B200"/>
<path d="M367.07 407.841H370.365V404.871H367.07V407.841Z" fill="#05B200"/>
<path d="M262.287 407.841H265.252V404.871H262.287V407.841Z" fill="#05B200"/>
<path d="M237.574 407.841H240.539V404.871H237.574V407.841Z" fill="#05B200"/>
<path d="M89.6257 407.841H92.5912V404.871H89.6257V407.841Z" fill="#05B200"/>
<path d="M55.6865 407.841H58.6521V404.871H55.6865V407.841Z" fill="#05B200"/>
<path d="M40.1998 407.841H43.1653V404.871H40.1998V407.841Z" fill="#05B200"/>
<path d="M33.9392 407.841H37.2342V404.871H33.9392V407.841Z" fill="#05B200"/>
<path d="M27.6785 407.841H30.9736V404.871H27.6785V407.841Z" fill="#05B200"/>
<path d="M243.834 404.871H246.8V401.571H243.834V404.871Z" fill="#05B200"/>
<path d="M185.182 404.871H188.148V401.571H185.182V404.871Z" fill="#05B200"/>
<path d="M157.504 404.871H160.469V401.571H157.504V404.871Z" fill="#05B200"/>
<path d="M138.722 404.871H142.017V401.571H138.722V404.871Z" fill="#05B200"/>
<path d="M126.53 404.871H129.496V401.571H126.53V404.871Z" fill="#05B200"/>
<path d="M114.339 404.871H117.304V401.571H114.339V404.871Z" fill="#05B200"/>
<path d="M382.556 401.571H385.522V398.602H382.556V401.571Z" fill="#05B200"/>
<path d="M274.479 401.571H277.774V398.602H274.479V401.571Z" fill="#05B200"/>
<path d="M209.895 401.571H206.6V398.602H203.635V395.632H206.6V398.602H209.895V401.571Z" fill="#05B200"/>
<path d="M178.922 401.571H182.217V398.602H178.922V401.571Z" fill="#05B200"/>
<path d="M108.078 401.571H111.044V398.602H108.078V401.571Z" fill="#05B200"/>
<path d="M101.817 401.571H105.112V398.602H101.817V401.571Z" fill="#05B200"/>
<path d="M33.9392 401.571H30.9736V395.632H27.6785V392.332H30.9736V389.362H33.9392V392.332H37.2342V395.632H33.9392V401.571Z" fill="#05B200"/>
<path d="M357.844 398.602H361.139V395.632H357.844V398.602Z" fill="#05B200"/>
<path d="M348.617 398.602H351.912V395.632H348.617V398.602Z" fill="#05B200"/>
<path d="M333.131 398.602H336.426V395.632H333.131V398.602Z" fill="#05B200"/>
<path d="M256.026 398.602H259.321V395.632H256.026V398.602Z" fill="#05B200"/>
<path d="M246.8 398.602H250.095V395.632H246.8V398.602Z" fill="#05B200"/>
<path d="M172.661 398.602H175.956V395.632H172.661V398.602Z" fill="#05B200"/>
<path d="M148.278 398.602H151.243V395.632H148.278V398.602Z" fill="#05B200"/>
<path d="M77.1044 398.602H80.3995V395.632H77.1044V398.602Z" fill="#05B200"/>
<path d="M398.043 395.632H401.009V392.332H398.043V395.632Z" fill="#05B200"/>
<path d="M327.2 395.632H323.904V392.332H320.939V389.362H323.904V386.393H327.2V389.362H323.904V392.332H327.2V395.632Z" fill="#05B200"/>
<path d="M240.539 395.632H243.834V392.332H240.539V395.632Z" fill="#05B200"/>
<path d="M234.608 395.632H237.574V392.332H234.608V395.632Z" fill="#05B200"/>
<path d="M101.817 395.632H105.112V392.332H101.817V395.632Z" fill="#05B200"/>
<path d="M95.5568 395.632H98.8518V392.332H95.5568V395.632Z" fill="#05B200"/>
<path d="M58.6521 395.632H61.6177V392.332H58.6521V395.632Z" fill="#05B200"/>
<path d="M404.304 392.332H407.269V389.362H404.304V392.332Z" fill="#05B200"/>
<path d="M342.357 392.332H345.652V389.362H342.357V392.332Z" fill="#05B200"/>
<path d="M330.165 392.332H333.131V389.362H330.165V392.332Z" fill="#05B200"/>
<path d="M250.095 392.332H253.061V389.362H250.095V392.332Z" fill="#05B200"/>
<path d="M126.53 392.332H129.496V389.362H126.53V392.332Z" fill="#05B200"/>
<path d="M120.27 392.332H123.565V389.362H120.27V392.332Z" fill="#05B200"/>
<path d="M40.1998 392.332H43.1653V389.362H40.1998V392.332Z" fill="#05B200"/>
<path d="M15.4868 392.332H18.4523V389.362H15.4868V392.332Z" fill="#05B200"/>
<path d="M225.382 389.362H228.348V386.393H225.382V389.362Z" fill="#05B200"/>
<path d="M197.374 389.362H200.669V386.393H197.374V389.362Z" fill="#05B200"/>
<path d="M185.182 389.362H188.148V386.393H185.182V389.362Z" fill="#05B200"/>
<path d="M163.435 389.362H166.73V386.393H163.435V389.362Z" fill="#05B200"/>
<path d="M108.078 389.362H111.044V386.393H108.078V389.362Z" fill="#05B200"/>
<path d="M67.8782 389.362H71.1734V386.393H67.8782V389.362Z" fill="#05B200"/>
<path d="M49.4259 389.362H52.3915V386.393H49.4259V389.362Z" fill="#05B200"/>
<path d="M148.278 386.393H151.243V383.093H148.278V386.393Z" fill="#05B200"/>
<path d="M135.757 386.393H138.722V383.093H135.757V386.393Z" fill="#05B200"/>
<path d="M101.817 386.393H105.112V383.093H101.817V386.393Z" fill="#05B200"/>
<path d="M27.6785 386.393H30.9736V380.123H27.6785V386.393Z" fill="#05B200"/>
<path d="M413.53 383.093H416.496V380.123H413.53V383.093Z" fill="#05B200"/>
<path d="M385.522 383.093H388.817V380.123H385.522V383.093Z" fill="#05B200"/>
<path d="M327.2 383.093H333.131V380.123H330.165V376.824H333.131V373.854H330.165V370.884H327.2V376.824H323.904V380.123H327.2V383.093Z" fill="#05B200"/>
<path d="M271.513 383.093H274.479V380.123H271.513V383.093Z" fill="#05B200"/>
<path d="M256.026 383.093H259.321V380.123H256.026V383.093Z" fill="#05B200"/>
<path d="M237.574 383.093H240.539V380.123H237.574V383.093Z" fill="#05B200"/>
<path d="M182.217 383.093H185.182V380.123H182.217V383.093Z" fill="#05B200"/>
<path d="M157.504 383.093H160.469V380.123H157.504V383.093Z" fill="#05B200"/>
<path d="M123.565 383.093H129.496V380.123H123.565V383.093Z" fill="#05B200"/>
<path d="M95.5568 383.093H98.8518V380.123H95.5568V383.093Z" fill="#05B200"/>
<path d="M80.3995 383.093H83.3651V380.123H80.3995V383.093Z" fill="#05B200"/>
<path d="M12.5213 383.093H15.4868V380.123H12.5213V383.093Z" fill="#05B200"/>
<path d="M262.287 380.123H265.252V376.824H262.287V380.123Z" fill="#05B200"/>
<path d="M246.8 380.123H250.095V376.824H246.8V380.123Z" fill="#05B200"/>
<path d="M166.73 380.123H169.696V376.824H166.73V380.123Z" fill="#05B200"/>
<path d="M132.791 380.123H135.757V376.824H132.791V380.123Z" fill="#05B200"/>
<path d="M117.304 380.123H120.27V376.824H117.304V380.123Z" fill="#05B200"/>
<path d="M111.044 380.123H114.339V376.824H111.044V380.123Z" fill="#05B200"/>
<path d="M86.3306 380.123H89.6257V376.824H86.3306V380.123Z" fill="#05B200"/>
<path d="M256.026 376.824H259.321V373.854H256.026V376.824Z" fill="#05B200"/>
<path d="M203.635 376.824H206.6V373.854H203.635V376.824Z" fill="#05B200"/>
<path d="M194.409 376.824H197.374V373.854H194.409V376.824Z" fill="#05B200"/>
<path d="M144.983 376.824H148.278V373.854H144.983V376.824Z" fill="#05B200"/>
<path d="M126.53 376.824H129.496V373.854H126.53V376.824Z" fill="#05B200"/>
<path d="M61.6177 376.824H64.9127V373.854H61.6177V376.824Z" fill="#05B200"/>
<path d="M27.6785 376.824H30.9736V373.854H27.6785V376.824Z" fill="#05B200"/>
<path d="M425.722 373.854H429.017V370.884H425.722V373.854Z" fill="#05B200"/>
<path d="M401.009 373.854H404.304V370.884H401.009V373.854Z" fill="#05B200"/>
<path d="M182.217 373.854H185.182V370.884H182.217V373.854Z" fill="#05B200"/>
<path d="M114.339 373.854H111.044V370.884H108.078V367.585H111.044V370.884H114.339V373.854Z" fill="#05B200"/>
<path d="M98.8518 373.854H101.817V370.884H98.8518V373.854Z" fill="#05B200"/>
<path d="M55.6865 373.854H58.6521V370.884H55.6865V373.854Z" fill="#05B200"/>
<path d="M49.4259 373.854H52.3915V370.884H49.4259V373.854Z" fill="#05B200"/>
<path d="M37.2342 373.854H40.1998V370.884H37.2342V373.854Z" fill="#05B200"/>
<path d="M305.452 370.884H308.418V367.585H305.452V370.884Z" fill="#05B200"/>
<path d="M256.026 370.884H262.287V367.585H256.026V370.884Z" fill="#05B200"/>
<path d="M24.713 370.884H27.6785V367.585H24.713V370.884Z" fill="#05B200"/>
<path d="M296.226 367.585H299.191V364.615H296.226V367.585Z" fill="#05B200"/>
<path d="M284.034 367.585H287V364.615H284.034V367.585Z" fill="#05B200"/>
<path d="M194.409 367.585H197.374V364.615H194.409V367.585Z" fill="#05B200"/>
<path d="M126.53 367.585H129.496V364.615H126.53V367.585Z" fill="#05B200"/>
<path d="M95.5568 367.585H98.8518V364.615H95.5568V367.585Z" fill="#05B200"/>
<path d="M77.1044 367.585H80.3995V364.615H77.1044V367.585Z" fill="#05B200"/>
<path d="M46.4604 367.585H49.4259V364.615H46.4604V367.585Z" fill="#05B200"/>
<path d="M9.22621 367.585H12.5213V364.615H9.22621V367.585Z" fill="#05B200"/>
<path d="M250.095 364.615H253.061V361.645H250.095V364.615Z" fill="#05B200"/>
<path d="M182.217 364.615H185.182V361.645H182.217V364.615Z" fill="#05B200"/>
<path d="M144.983 364.615H142.017V361.645H138.722V358.345H142.017V361.645H144.983V364.615Z" fill="#05B200"/>
<path d="M27.6785 364.615H24.713V361.645H18.4523V358.345H24.713V361.645H27.6785V364.615Z" fill="#05B200"/>
<path d="M419.461 361.645H422.756V358.345H419.461V361.645Z" fill="#05B200"/>
<path d="M169.696 361.645H172.661V358.345H169.696V361.645Z" fill="#05B200"/>
<path d="M129.496 361.645H132.791V358.345H129.496V361.645Z" fill="#05B200"/>
<path d="M120.27 361.645H123.565V358.345H120.27V361.645Z" fill="#05B200"/>
<path d="M111.044 361.645H114.339V358.345H111.044V361.645Z" fill="#05B200"/>
<path d="M105.112 361.645H108.078V358.345H105.112V361.645Z" fill="#05B200"/>
<path d="M40.1998 361.645H43.1653V358.345H40.1998V361.645Z" fill="#05B200"/>
<path d="M327.2 358.345H330.165V355.376H327.2V358.345Z" fill="#05B200"/>
<path d="M157.504 358.345H160.469V355.376H157.504V358.345Z" fill="#05B200"/>
<path d="M67.8783 358.345H71.1734V355.376H67.8783V358.345Z" fill="#05B200"/>
<path d="M336.426 355.376H339.391V352.406H336.426V355.376Z" fill="#05B200"/>
<path d="M293.26 355.376H296.226V352.406H293.26V355.376Z" fill="#05B200"/>
<path d="M234.608 355.376H237.574V352.406H234.608V355.376Z" fill="#05B200"/>
<path d="M206.6 355.376H209.895V352.406H206.6V355.376Z" fill="#05B200"/>
<path d="M191.443 355.376H194.409V352.406H191.443V355.376Z" fill="#05B200"/>
<path d="M105.112 355.376H108.078V352.406H105.112V355.376Z" fill="#05B200"/>
<path d="M92.5912 355.376H95.5568V352.406H92.5912V355.376Z" fill="#05B200"/>
<path d="M1.52588e-05 355.376H3.29512V352.406H1.55184e-05L1.52588e-05 355.376Z" fill="#05B200"/>
<path d="M348.617 352.406H351.912V349.106H348.617V352.406Z" fill="#05B200"/>
<path d="M219.122 352.406H222.087V349.106H219.122V352.406Z" fill="#05B200"/>
<path d="M169.696 352.406H172.661V349.106H169.696V352.406Z" fill="#05B200"/>
<path d="M80.3995 352.406H83.3651V349.106H80.3995V352.406Z" fill="#05B200"/>
<path d="M18.4523 352.406H21.7475V349.106H18.4523V352.406Z" fill="#05B200"/>
<path d="M320.939 349.106H323.904V346.137H320.939V349.106Z" fill="#05B200"/>
<path d="M129.496 349.106H132.791V346.137H129.496V349.106Z" fill="#05B200"/>
<path d="M114.339 349.106H117.304V346.137H114.339V349.106Z" fill="#05B200"/>
<path d="M101.817 349.106H105.112V346.137H101.817V349.106Z" fill="#05B200"/>
<path d="M67.8783 349.106H64.9127V346.137H61.6177V342.837H64.9127V346.137H67.8783V349.106Z" fill="#05B200"/>
<path d="M37.2342 349.106H40.1998V346.137H37.2342V349.106Z" fill="#05B200"/>
<path d="M12.5213 349.106H15.4868V346.137H12.5213V349.106Z" fill="#05B200"/>
<path d="M311.713 346.137H314.678V342.837H311.713V346.137Z" fill="#05B200"/>
<path d="M191.443 346.137H194.409V342.837H191.443V346.137Z" fill="#05B200"/>
<path d="M138.722 346.137H142.017V342.837H138.722V346.137Z" fill="#05B200"/>
<path d="M74.1389 346.137H77.1044V342.837H74.1389V346.137Z" fill="#05B200"/>
<path d="M18.4523 346.137H21.7475V342.837H18.4523V346.137Z" fill="#05B200"/>
<path d="M160.469 342.837H163.435V339.867H160.469V342.837Z" fill="#05B200"/>
<path d="M144.983 342.837H148.278V339.867H144.983V342.837Z" fill="#05B200"/>
<path d="M126.53 342.837H129.496V339.867H126.53V342.837Z" fill="#05B200"/>
<path d="M98.8518 342.837H101.817V339.867H98.8518V342.837Z" fill="#05B200"/>
<path d="M49.4259 342.837H52.3915V339.867H49.4259V342.837Z" fill="#05B200"/>
<path d="M30.9736 342.837H33.9392V339.867H30.9736V342.837Z" fill="#05B200"/>
<path d="M253.061 339.867H256.026V336.898H253.061V339.867Z" fill="#05B200"/>
<path d="M182.217 339.867H178.922V336.898H175.956V333.598H178.922V336.898H182.217V339.867Z" fill="#05B200"/>
<path d="M108.078 339.867H111.044V336.898H108.078V339.867Z" fill="#05B200"/>
<path d="M83.3651 339.867H86.3306V336.898H83.3651V339.867Z" fill="#05B200"/>
<path d="M18.4523 339.867H15.4868V336.898H12.5213V333.598H15.4868V330.628H18.4523V333.598H15.4868V336.898H18.4523V339.867Z" fill="#05B200"/>
<path d="M200.669 336.898H203.635V333.598H200.669V336.898Z" fill="#05B200"/>
<path d="M191.443 336.898H194.409V333.598H191.443V336.898Z" fill="#05B200"/>
<path d="M95.5568 336.898H98.8518V333.598H95.5568V336.898Z" fill="#05B200"/>
<path d="M61.6177 336.898H64.9127V333.598H61.6177V336.898Z" fill="#05B200"/>
<path d="M123.565 330.628H126.53V327.658H123.565V330.628Z" fill="#05B200"/>
<path d="M80.3995 330.628H83.3651V327.658H80.3995V330.628Z" fill="#05B200"/>
<path d="M71.1734 330.628H74.1389V327.658H71.1734V330.628Z" fill="#05B200"/>
<path d="M55.6865 330.628H58.6521V327.658H55.6865V330.628Z" fill="#05B200"/>
<path d="M43.1653 330.628H46.4604V327.658H43.1653V330.628Z" fill="#05B200"/>
<path d="M33.9392 330.628H37.2342V327.658H33.9392V330.628Z" fill="#05B200"/>
<path d="M9.22621 330.628H12.5213V324.359H9.22621V330.628Z" fill="#05B200"/>
<path d="M407.269 327.658H410.235V324.359H407.269V327.658Z" fill="#05B200"/>
<path d="M385.522 327.658H388.817V324.359H385.522V327.658Z" fill="#05B200"/>
<path d="M376.296 327.658H379.591V324.359H376.296V327.658Z" fill="#05B200"/>
<path d="M175.956 327.658H178.922V324.359H175.956V327.658Z" fill="#05B200"/>
<path d="M135.757 327.658H138.722V324.359H135.757V327.658Z" fill="#05B200"/>
<path d="M108.078 327.658H111.044V324.359H108.078V327.658Z" fill="#05B200"/>
<path d="M98.8518 327.658H101.817V324.359H98.8518V327.658Z" fill="#05B200"/>
<path d="M401.009 324.359H404.304V321.389H401.009V324.359Z" fill="#05B200"/>
<path d="M188.148 324.359H191.443V321.389H188.148V324.359Z" fill="#05B200"/>
<path d="M92.5912 324.359H95.5568V321.389H92.5912V324.359Z" fill="#05B200"/>
<path d="M30.9736 324.359H33.9392V321.389H30.9736V324.359Z" fill="#05B200"/>
<path d="M253.061 321.389H256.026V318.419H253.061V321.389Z" fill="#05B200"/>
<path d="M172.661 321.389H175.956V318.419H172.661V321.389Z" fill="#05B200"/>
<path d="M74.1389 321.389H77.1044L77.1045 318.419H74.1389V321.389Z" fill="#05B200"/>
<path d="M67.8783 321.389H71.1734V318.419H67.8783V321.389Z" fill="#05B200"/>
<path d="M61.6177 321.389H58.6521V318.419H55.6865V315.12H58.6521V318.419H61.6177V321.389Z" fill="#05B200"/>
<path d="M9.22621 321.389H3.29512V318.419H1.52588e-05L1.55473e-05 315.12H3.29512V318.419H9.22622L9.22621 321.389Z" fill="#05B200"/>
<path d="M425.722 318.419H429.017V315.12H425.722V318.419Z" fill="#05B200"/>
<path d="M197.374 318.419H200.669V315.12H197.374V318.419Z" fill="#05B200"/>
<path d="M86.3306 318.419H89.6257V315.12H86.3306V318.419Z" fill="#05B200"/>
<path d="M234.608 315.12H237.574V312.15H234.608V315.12Z" fill="#05B200"/>
<path d="M216.156 315.12H219.122V312.15H216.156V315.12Z" fill="#05B200"/>
<path d="M185.182 315.12H188.148V312.15H185.182V315.12Z" fill="#05B200"/>
<path d="M95.5568 315.12H98.8518V308.85H95.5568V315.12Z" fill="#05B200"/>
<path d="M15.4868 315.12H18.4524V312.15H15.4868V315.12Z" fill="#05B200"/>
<path d="M169.696 312.15H172.661V308.85H169.696V312.15Z" fill="#05B200"/>
<path d="M83.3651 312.15H80.3995V308.85H77.1045V305.881H80.3995V308.85H83.3651V312.15Z" fill="#05B200"/>
<path d="M71.1734 312.15H67.8783V308.85H64.9127V305.881H61.6177V302.911H64.9127V305.881H67.8783V308.85H71.1734V312.15Z" fill="#05B200"/>
<path d="M49.4259 312.15H52.3915V308.85H49.4259V312.15Z" fill="#05B200"/>
<path d="M416.496 308.85H419.461V305.881H416.496V308.85Z" fill="#05B200"/>
<path d="M126.53 308.85H129.496V305.881H126.53V308.85Z" fill="#05B200"/>
<path d="M108.078 308.85H111.044V305.881H108.078V308.85Z" fill="#05B200"/>
<path d="M86.3306 308.85H89.6257V305.881H86.3306V308.85Z" fill="#05B200"/>
<path d="M43.1653 308.85H46.4604V305.881H43.1653V308.85Z" fill="#05B200"/>
<path d="M30.9736 308.85H33.9392V305.881H30.9736V308.85Z" fill="#05B200"/>
<path d="M1.52588e-05 308.85H3.29512V305.881H1.55184e-05L1.52588e-05 308.85Z" fill="#05B200"/>
<path d="M178.922 305.881H182.217V302.911H178.922V305.881Z" fill="#05B200"/>
<path d="M138.722 305.881H142.017V302.911H138.722V305.881Z" fill="#05B200"/>
<path d="M271.513 302.911H274.479V299.611H271.513V302.911Z" fill="#05B200"/>
<path d="M256.026 302.911H259.321V299.611H256.026V302.911Z" fill="#05B200"/>
<path d="M169.696 302.911H172.661V299.611H169.696V302.911Z" fill="#05B200"/>
<path d="M160.47 302.911H163.435V299.611H160.47V302.911Z" fill="#05B200"/>
<path d="M120.27 302.911H123.565V299.611H120.27V302.911Z" fill="#05B200"/>
<path d="M55.6865 302.911H58.6521V299.611H55.6865V302.911Z" fill="#05B200"/>
<path d="M101.817 299.611H105.112V296.641H101.817V299.611Z" fill="#05B200"/>
<path d="M92.5912 299.611H95.5568V296.641H92.5912V299.611Z" fill="#05B200"/>
<path d="M77.1045 299.611H80.3995V296.641H77.1045V299.611Z" fill="#05B200"/>
<path d="M67.8783 299.611H64.9127V296.641H61.6177V293.672H64.9127V290.372H67.8783V293.672H64.9127V296.641H67.8783V299.611Z" fill="#05B200"/>
<path d="M43.1653 299.611H46.4604V296.641H43.1653V299.611Z" fill="#05B200"/>
<path d="M240.539 296.641H243.834V293.672H240.539V296.641Z" fill="#05B200"/>
<path d="M172.661 296.641H169.696V293.672H166.73V290.372H169.696V293.672H172.661V296.641Z" fill="#05B200"/>
<path d="M157.504 296.641H160.47V293.672H157.504V296.641Z" fill="#05B200"/>
<path d="M24.713 296.641H27.6785V293.672H24.713V296.641Z" fill="#05B200"/>
<path d="M250.095 293.672H253.061V290.372H250.095V293.672Z" fill="#05B200"/>
<path d="M225.382 293.672H228.348V290.372H225.382V293.672Z" fill="#05B200"/>
<path d="M86.3306 293.672H89.6257V290.372H86.3306V293.672Z" fill="#05B200"/>
<path d="M80.3995 293.672H77.1045V290.372H74.1389V287.402H71.1734V284.433H74.1389V287.402H77.1045V290.372H80.3995V293.672Z" fill="#05B200"/>
<path d="M1.52588e-05 293.672H3.29512V290.372H1.55473e-05L1.52588e-05 293.672Z" fill="#05B200"/>
<path d="M293.26 290.372H296.226V287.402H293.26V290.372Z" fill="#05B200"/>
<path d="M172.661 290.372H175.956V287.402H172.661V290.372Z" fill="#05B200"/>
<path d="M142.017 290.372H144.983V287.402H142.017V290.372Z" fill="#05B200"/>
<path d="M101.817 290.372H98.8518V287.402H95.5568V284.433H98.8518V287.402H101.817V290.372Z" fill="#05B200"/>
<path d="M46.4604 290.372H43.1653V287.402H40.1998V284.433H43.1653V287.402H46.4604V290.372Z" fill="#05B200"/>
<path d="M308.418 287.402H311.713V284.433H308.418V287.402Z" fill="#05B200"/>
<path d="M166.73 287.402H163.435V281.133H160.47V278.163H163.435V281.133H166.73V287.402Z" fill="#05B200"/>
<path d="M135.757 287.402H138.722V284.433H135.757V287.402Z" fill="#05B200"/>
<path d="M58.6521 287.402H61.6177V284.433H58.6521V287.402Z" fill="#05B200"/>
<path d="M33.9392 287.402H37.2342V284.433H33.9392V287.402Z" fill="#05B200"/>
<path d="M18.4524 287.402H21.7475V284.433H18.4524V287.402Z" fill="#05B200"/>
<path d="M277.774 284.433H280.739V281.133H277.774V284.433Z" fill="#05B200"/>
<path d="M123.565 284.433H126.53V281.133H123.565V284.433Z" fill="#05B200"/>
<path d="M86.3306 284.433H89.6257V281.133H86.3306V284.433Z" fill="#05B200"/>
<path d="M80.3995 281.133H83.3651V278.163H80.3995V281.133Z" fill="#05B200"/>
<path d="M74.1389 281.133H77.1045V278.163H74.1389V281.133Z" fill="#05B200"/>
<path d="M287 278.163H289.965V274.864H287V278.163Z" fill="#05B200"/>
<path d="M67.8783 278.163H71.1734V274.863H67.8783V278.163Z" fill="#05B200"/>
<path d="M12.5213 278.163H15.4868V274.863H12.5213V278.163Z" fill="#05B200"/>
<path d="M246.8 274.864H250.095V271.894H246.8V274.864Z" fill="#05B200"/>
<path d="M154.209 274.864H160.47V271.894H154.209V274.864Z" fill="#05B200"/>
<path d="M117.304 274.863H120.27V271.894H117.304V274.863Z" fill="#05B200"/>
<path d="M86.3307 274.863H89.6257V271.894H86.3307V274.863Z" fill="#05B200"/>
<path d="M80.3995 274.863H77.1045V271.894H74.1389V268.924H77.1045V265.624H80.3995V268.924H77.1045V271.894H80.3995V274.863Z" fill="#05B200"/>
<path d="M58.6521 274.863H61.6177V271.894H58.6521V274.863Z" fill="#05B200"/>
<path d="M33.9392 274.863H37.2342V271.894H33.9392V274.863Z" fill="#05B200"/>
<path d="M323.904 271.894H327.2V268.924H323.904V271.894Z" fill="#05B200"/>
<path d="M271.513 271.894H274.479V268.924H271.513V271.894Z" fill="#05B200"/>
<path d="M138.722 271.894H142.017V268.924H138.722V271.894Z" fill="#05B200"/>
<path d="M108.078 271.894H111.044V268.924H108.078V271.894Z" fill="#05B200"/>
<path d="M98.8518 271.894H101.817V268.924H98.8518V271.894Z" fill="#05B200"/>
<path d="M151.243 268.924H154.209V265.624H151.243V268.924Z" fill="#05B200"/>
<path d="M67.8783 268.924H71.1734V265.624H67.8783V268.924Z" fill="#05B200"/>
<path d="M49.4259 268.924H52.3915V265.624H49.4259V268.924Z" fill="#05B200"/>
<path d="M6.26064 268.924H9.22622V265.624H6.26064V268.924Z" fill="#05B200"/>
<path d="M259.321 265.624H262.287V262.655H259.321V265.624Z" fill="#05B200"/>
<path d="M129.496 265.624H132.791V262.655H129.496V265.624Z" fill="#05B200"/>
<path d="M83.3651 265.624H86.3307V262.655H83.3651V265.624Z" fill="#05B200"/>
<path d="M61.6177 265.624H64.9127V262.655H61.6177V265.624Z" fill="#05B200"/>
<path d="M287 262.655H289.965V259.685H287V262.655Z" fill="#05B200"/>
<path d="M148.278 262.655H151.243V259.685H148.278V262.655Z" fill="#05B200"/>
<path d="M95.5568 262.655H98.8518V259.685H95.5568V262.655Z" fill="#05B200"/>
<path d="M74.1389 262.655H77.1045V259.685H74.1389V262.655Z" fill="#05B200"/>
<path d="M30.9736 262.655H33.9392V259.685H30.9736V262.655Z" fill="#05B200"/>
<path d="M126.53 259.685H129.496V256.385H126.53V259.685Z" fill="#05B200"/>
<path d="M58.6521 259.685H61.6177V256.385H58.6521V259.685Z" fill="#05B200"/>
<path d="M280.739 256.385H284.034V253.416H280.739V256.385Z" fill="#05B200"/>
<path d="M256.026 256.385H259.321V253.416H256.026V256.385Z" fill="#05B200"/>
<path d="M157.504 256.385H160.47V253.416H157.504V256.385Z" fill="#05B200"/>
<path d="M142.017 256.385H144.983V253.416H142.017V256.385Z" fill="#05B200"/>
<path d="M120.27 256.385H117.304V253.416H114.339V250.446H117.304V253.416H120.27V256.385Z" fill="#05B200"/>
<path d="M89.6257 256.385H92.5912V253.416H89.6257V256.385Z" fill="#05B200"/>
<path d="M83.3651 256.385H86.3307V253.416H83.3651V256.385Z" fill="#05B200"/>
<path d="M74.1389 256.385H77.1045V253.416H74.1389V256.385Z" fill="#05B200"/>
<path d="M67.8783 256.385H71.1734V253.416H67.8783V256.385Z" fill="#05B200"/>
<path d="M43.1653 256.385H46.4604V253.416H43.1653V256.385Z" fill="#05B200"/>
<path d="M24.713 256.385H27.6786V253.416H24.713V256.385Z" fill="#05B200"/>
<path d="M3.29514 256.385H6.26065V253.416H3.29514V256.385Z" fill="#05B200"/>
<path d="M342.357 253.416H345.652V250.446H342.357V253.416Z" fill="#05B200"/>
<path d="M52.3915 253.416H55.6865V250.446H52.3915V253.416Z" fill="#05B200"/>
<path d="M271.513 250.446H274.479V247.146H271.513V250.446Z" fill="#05B200"/>
<path d="M120.27 250.446H123.565V247.146H120.27V250.446Z" fill="#05B200"/>
<path d="M108.078 250.446H111.044V247.146H108.078V250.446Z" fill="#05B200"/>
<path d="M98.8518 250.446H101.817V247.146H98.8518V250.446Z" fill="#05B200"/>
<path d="M86.3307 250.446H89.6257V247.146H86.3307V250.446Z" fill="#05B200"/>
<path d="M83.3651 250.446H80.3995V247.146H77.1045V250.446H74.1389V247.146H77.1045V244.176H74.1389V240.877H71.1734V244.176H67.8783V247.146H71.1734V250.446H67.8783V247.146H64.9127V250.446H61.6177V247.146H64.9127V244.176H67.8783V240.877H61.6177V244.176H58.6521V240.877H55.6865V234.937H49.4259V231.638H46.4604V228.668H40.1998V222.399H37.2342V219.429H33.9392V222.399H30.9736V219.429H33.9392V216.459H37.2342V213.159H33.9392V210.19H30.9736V206.89H27.6786V203.92H30.9736V206.89H33.9392V210.19H37.2342V213.159H40.1998V216.459H43.1653V210.19H40.1998V206.89H43.1653V210.19H46.4604V213.159H49.4259V219.429H55.6866V222.399H58.6521V228.668H67.8783V225.698H71.1734V228.668H74.1389V231.638H71.1734V234.937H77.1045V231.638H80.3995V228.668H77.1045V222.399H74.1389V219.429H77.1045V222.399H80.3995V228.668H83.3651V234.937H77.1045V237.907H80.3995V240.877H77.1045V244.176H80.3995V247.146H83.3651V250.446Z" fill="#05B200"/>
<path d="M21.7475 250.446H24.713V247.146H21.7475V250.446Z" fill="#05B200"/>
<path d="M138.722 247.146H142.017V244.176H138.722V247.146Z" fill="#05B200"/>
<path d="M129.496 247.146H132.791V244.176H129.496V247.146Z" fill="#05B200"/>
<path d="M55.6865 247.146H52.3915V244.176H49.4259V247.146H46.4604V244.176H49.4259V237.907H52.3915V244.176H55.6865V247.146Z" fill="#05B200"/>
<path d="M40.1998 247.146H43.1653V244.176H40.1998V247.146Z" fill="#05B200"/>
<path d="M15.4868 247.146H18.4524V244.176H15.4868V247.146Z" fill="#05B200"/>
<path d="M172.661 244.176H175.956V240.877H172.661V244.176Z" fill="#05B200"/>
<path d="M144.983 244.176H148.278V240.877H144.983V244.176Z" fill="#05B200"/>
<path d="M320.939 240.877H317.973V237.907H314.678V234.937H317.973V237.907H320.939V240.877Z" fill="#05B200"/>
<path d="M284.034 240.877H287V237.907H284.034V240.877Z" fill="#05B200"/>
<path d="M262.287 240.877H265.252V237.907H262.287V240.877Z" fill="#05B200"/>
<path d="M98.8518 240.877H95.5568V237.907H92.5912V234.937H95.5568V237.907H98.8518V240.877Z" fill="#05B200"/>
<path d="M83.3651 240.877H86.3307V237.907H83.3651V240.877Z" fill="#05B200"/>
<path d="M40.1998 240.877H43.1653V237.907H40.1998V240.877Z" fill="#05B200"/>
<path d="M37.2342 240.877H33.9392V237.907H30.9736V234.937H33.9392V237.907H37.2342V240.877Z" fill="#05B200"/>
<path d="M120.27 237.907H123.565V234.937H120.27V237.907Z" fill="#05B200"/>
<path d="M108.078 237.907H111.044V234.937H108.078V237.907Z" fill="#05B200"/>
<path d="M277.774 234.937H280.739V231.638H277.774V234.937Z" fill="#05B200"/>
<path d="M157.504 234.937H160.47V231.638H157.504V234.937Z" fill="#05B200"/>
<path d="M89.6257 234.937H86.3307V231.638H89.6257V228.668H92.5912V231.638H89.6257V234.937Z" fill="#05B200"/>
<path d="M15.4868 234.937H18.4524V231.638H15.4868V234.937Z" fill="#05B200"/>
<path d="M135.757 231.638H138.722V228.668H135.757V231.638Z" fill="#05B200"/>
<path d="M105.112 231.638H108.078V228.668H105.112V231.638Z" fill="#05B200"/>
<path d="M95.5568 231.638H98.8518V228.668H95.5568V231.638Z" fill="#05B200"/>
<path d="M129.496 228.668H132.791V225.698H129.496V228.668Z" fill="#05B200"/>
<path d="M117.304 228.668H120.27V225.698H117.304V228.668Z" fill="#05B200"/>
<path d="M30.9736 228.668H33.9392V225.698H30.9736V228.668Z" fill="#05B200"/>
<path d="M24.713 228.668H27.6786V225.698H24.713V228.668Z" fill="#05B200"/>
<path d="M351.912 225.698H354.878V222.399H351.912V225.698Z" fill="#05B200"/>
<path d="M342.357 225.698H345.652V222.399H342.357V225.698Z" fill="#05B200"/>
<path d="M305.452 225.698H308.418V222.399H305.452V225.698Z" fill="#05B200"/>
<path d="M98.8518 225.698H101.817V222.399H98.8518V225.698Z" fill="#05B200"/>
<path d="M268.547 222.399H271.513V219.429H268.547V222.399Z" fill="#05B200"/>
<path d="M92.5912 222.399H95.5568V219.429H92.5912V222.399Z" fill="#05B200"/>
<path d="M86.3307 222.399H89.6257V219.429H86.3307V222.399Z" fill="#05B200"/>
<path d="M71.1734 222.399H67.8783V219.429H64.9127V216.459H67.8783V219.429H71.1734V222.399Z" fill="#05B200"/>
<path d="M18.4524 222.399H21.7475V219.429H18.4524V222.399Z" fill="#05B200"/>
<path d="M120.27 219.429H123.565V216.459H120.27V219.429Z" fill="#05B200"/>
<path d="M108.078 219.429H111.044V216.459H108.078V219.429Z" fill="#05B200"/>
<path d="M6.26065 219.429H9.22622V216.459H6.26065V219.429Z" fill="#05B200"/>
<path d="M289.965 216.459H293.26V213.159H289.965V216.459Z" fill="#05B200"/>
<path d="M58.6521 216.459H61.6177V213.159H58.6521V216.459Z" fill="#05B200"/>
<path d="M52.3915 216.459H55.6866V213.159H52.3915V216.459Z" fill="#05B200"/>
<path d="M27.6786 216.459H30.9736V213.159H27.6786V216.459Z" fill="#05B200"/>
<path d="M250.095 213.159H253.061V210.19H250.095V213.159Z" fill="#05B200"/>
<path d="M135.757 213.159H138.722V210.19H135.757V213.159Z" fill="#05B200"/>
<path d="M120.27 213.159H123.565V210.19H120.27V213.159Z" fill="#05B200"/>
<path d="M98.8518 213.159H101.817V210.19H98.8518V213.159Z" fill="#05B200"/>
<path d="M86.3307 213.159H89.6257V210.19H86.3307V213.159Z" fill="#05B200"/>
<path d="M77.1045 213.159H80.3995V210.19H77.1045V213.159Z" fill="#05B200"/>
<path d="M74.1389 213.159H71.1734V210.19H67.8783V206.89H71.1734V210.19H74.1389V213.159Z" fill="#05B200"/>
<path d="M18.4524 213.159H21.7475V210.19H18.4524V213.159Z" fill="#05B200"/>
<path d="M108.078 210.19H111.044V206.89H108.078V210.19Z" fill="#05B200"/>
<path d="M64.9127 210.19H61.6177V206.89H58.6521V203.92H55.6866V200.951H58.6521V203.92H61.6177V206.89H64.9127V210.19Z" fill="#05B200"/>
<path d="M243.835 206.89H246.8V203.92H243.835V206.89Z" fill="#05B200"/>
<path d="M120.27 206.89H123.565V203.92H120.27V206.89Z" fill="#05B200"/>
<path d="M114.339 206.89H117.304V203.92H114.339V206.89Z" fill="#05B200"/>
<path d="M49.4259 206.89H52.3915V203.92H49.4259V206.89Z" fill="#05B200"/>
<path d="M3.05176e-05 206.89H3.29513V203.92H3.07772e-05L3.05176e-05 206.89Z" fill="#05B200"/>
<path d="M129.496 203.92H132.791V200.951H129.496V203.92Z" fill="#05B200"/>
<path d="M95.5568 203.92H98.8518V200.951H95.5568V203.92Z" fill="#05B200"/>
<path d="M77.1045 203.92H80.3995V200.951H77.1045V203.92Z" fill="#05B200"/>
<path d="M74.1389 203.92H71.1734V200.951H67.8783V197.651H64.9127V194.681H67.8783V197.651H71.1734V200.951H74.1389V203.92Z" fill="#05B200"/>
<path d="M43.1653 203.92H46.4604V200.951H43.1653V203.92Z" fill="#05B200"/>
<path d="M37.2342 203.92H40.1998V200.951H37.2342V203.92Z" fill="#05B200"/>
<path d="M18.4524 203.92H21.7475V200.951H18.4524V203.92Z" fill="#05B200"/>
<path d="M9.22623 203.92H12.5213V200.951H9.22623V203.92Z" fill="#05B200"/>
<path d="M289.965 200.951H293.26V197.651H289.965V200.951Z" fill="#05B200"/>
<path d="M163.435 200.951H166.73V197.651H163.435V200.951Z" fill="#05B200"/>
<path d="M86.3307 200.951H89.6257V197.651H86.3307V200.951Z" fill="#05B200"/>
<path d="M49.4259 200.951H52.3915V197.651H49.4259V200.951Z" fill="#05B200"/>
<path d="M30.9736 200.951H33.9392V197.651H30.9736V200.951Z" fill="#05B200"/>
<path d="M228.348 197.651H231.313V194.681H228.348V197.651Z" fill="#05B200"/>
<path d="M126.53 197.651H129.496V194.681H126.53V197.651Z" fill="#05B200"/>
<path d="M37.2342 197.651H40.1998V194.681H37.2342V197.651Z" fill="#05B200"/>
<path d="M308.418 194.681H311.713V191.712H308.418V194.681Z" fill="#05B200"/>
<path d="M265.252 194.681H268.547V191.712H265.252V194.681Z" fill="#05B200"/>
<path d="M117.304 194.681H120.27V191.712H117.304V194.681Z" fill="#05B200"/>
<path d="M111.044 194.681H114.339V191.712H111.044V194.681Z" fill="#05B200"/>
<path d="M74.1389 194.681H77.1045V191.712H74.1389V194.681Z" fill="#05B200"/>
<path d="M46.4604 194.681H49.4259V191.712H46.4604V194.681Z" fill="#05B200"/>
<path d="M30.9736 194.681H33.9392V191.712H30.9736V194.681Z" fill="#05B200"/>
<path d="M24.713 194.681H27.6786V191.712H24.713V194.681Z" fill="#05B200"/>
<path d="M9.22623 194.681H12.5213V191.712H9.22623V194.681Z" fill="#05B200"/>
<path d="M3.05176e-05 194.681H3.29513V191.712H3.07772e-05L3.05176e-05 194.681Z" fill="#05B200"/>
<path d="M108.078 191.712H105.112V188.412H101.817V185.442H98.8518V182.472H101.817V185.442H105.112V188.412H108.078V191.712Z" fill="#05B200"/>
<path d="M64.9127 191.712H61.6177V185.442H58.6521V182.472H55.6866V179.173H49.4259V176.203H46.4604V172.903H49.4259V176.203H55.6866V179.173H61.6177V185.442H64.9128L64.9127 191.712Z" fill="#05B200"/>
<path d="M52.3915 191.712H55.6866V188.412H52.3915V191.712Z" fill="#05B200"/>
<path d="M43.1653 191.712H40.1998V188.412H37.2342V185.442H33.9392V182.472H37.2342V185.442H40.1998V188.412H43.1653V191.712Z" fill="#05B200"/>
<path d="M18.4524 191.712H21.7475V188.412H18.4524V191.712Z" fill="#05B200"/>
<path d="M243.835 188.412H246.8V185.442H243.835V188.412Z" fill="#05B200"/>
<path d="M83.3651 188.412H86.3307V185.442H83.3651V188.412Z" fill="#05B200"/>
<path d="M71.1734 185.442H74.1389V182.472H71.1734V185.442Z" fill="#05B200"/>
<path d="M46.4604 185.442H49.4259V182.472H46.4604V185.442Z" fill="#05B200"/>
<path d="M21.7475 185.442H24.713V182.472H21.7475V185.442Z" fill="#05B200"/>
<path d="M6.26065 185.442H9.22623V182.472H6.26065V185.442Z" fill="#05B200"/>
<path d="M77.1045 182.472H80.3995V179.173H77.1045V182.472Z" fill="#05B200"/>
<path d="M27.6786 182.472H30.9736V179.173H27.6786V182.472Z" fill="#05B200"/>
<path d="M15.4868 182.472H18.4524V179.173H15.4868V182.472Z" fill="#05B200"/>
<path d="M95.5568 179.173H92.5912V176.203H89.6257V172.903H92.5912V176.203H95.5568V179.173Z" fill="#05B200"/>
<path d="M43.1653 179.173H40.1998V176.203H37.2342V172.903H40.1998V176.203H43.1653V179.173Z" fill="#05B200"/>
<path d="M111.044 176.203H114.339V172.903H111.044V176.203Z" fill="#05B200"/>
<path d="M74.1389 176.203H77.1045V172.903H74.1389V176.203Z" fill="#05B200"/>
<path d="M64.9128 176.203H67.8783V172.903H64.9128V176.203Z" fill="#05B200"/>
<path d="M126.53 172.903H129.496V169.934H126.53V172.903Z" fill="#05B200"/>
<path d="M105.112 172.903H108.078V169.934H105.112V172.903Z" fill="#05B200"/>
<path d="M58.6521 172.903H61.6177V169.934H58.6521V172.903Z" fill="#05B200"/>
<path d="M27.6786 172.903H30.9736V169.934H27.6786V172.903Z" fill="#05B200"/>
<path d="M15.4868 172.903H18.4524V169.934H15.4868V172.903Z" fill="#05B200"/>
<path d="M80.3995 169.934H83.3651V166.964H80.3995V169.934Z" fill="#05B200"/>
<path d="M46.4604 169.934H49.4259V166.964H46.4604V169.934Z" fill="#05B200"/>
<path d="M37.2342 169.934H40.1998V166.964H37.2342V169.934Z" fill="#05B200"/>
<path d="M3.05176e-05 169.934H3.29514V166.964H3.07773e-05L3.05176e-05 169.934Z" fill="#05B200"/>
<path d="M89.6257 166.964H92.5912V163.664H89.6257V166.964Z" fill="#05B200"/>
<path d="M12.5213 166.964H15.4868V163.664H12.5213V166.964Z" fill="#05B200"/>
<path d="M98.8518 163.664H101.817V160.695H98.8518V163.664Z" fill="#05B200"/>
<path d="M83.3651 163.664H80.3995V160.695H77.1045V157.725H80.3995V160.695H83.3651V163.664Z" fill="#05B200"/>
<path d="M71.1734 163.664H67.8783V160.695H64.9128V157.725H67.8783V160.695H71.1734V163.664Z" fill="#05B200"/>
<path d="M55.6866 163.664H58.6521V160.695H55.6866V163.664Z" fill="#05B200"/>
<path d="M43.1653 163.664H46.4604V160.695H43.1653V163.664Z" fill="#05B200"/>
<path d="M33.9392 163.664H37.2342V160.695H33.9392V163.664Z" fill="#05B200"/>
<path d="M24.713 163.664H27.6786V160.695H24.713V163.664Z" fill="#05B200"/>
<path d="M299.191 160.695H302.487V157.725H299.192L299.191 160.695Z" fill="#05B200"/>
<path d="M92.5912 157.725H95.5568V154.425H92.5912V157.725Z" fill="#05B200"/>
<path d="M55.6866 154.425H58.6521V151.455H55.6866V154.425Z" fill="#05B200"/>
<path d="M40.1998 154.425H43.1653V151.455H40.1998V154.425Z" fill="#05B200"/>
<path d="M18.4524 154.425H21.7475V151.455H18.4524V154.425Z" fill="#05B200"/>
<path d="M120.27 151.455H123.565V148.486H120.27V151.455Z" fill="#05B200"/>
<path d="M89.6257 151.455H86.3307V148.486H83.3651V145.186H86.3307V148.486H89.6257V151.455Z" fill="#05B200"/>
<path d="M49.4259 151.455H52.3915V145.186H49.4259V151.455Z" fill="#05B200"/>
<path d="M30.9736 151.455H33.9392V148.486H30.9736V151.455Z" fill="#05B200"/>
<path d="M12.5213 151.455H15.4868L15.4869 148.486H12.5213V151.455Z" fill="#05B200"/>
<path d="M114.339 148.486H117.304V145.186H114.339V148.486Z" fill="#05B200"/>
<path d="M101.817 148.486H105.112V145.186H101.817V148.486Z" fill="#05B200"/>
<path d="M296.226 145.186H299.192V142.216H296.226V145.186Z" fill="#05B200"/>
<path d="M92.5912 145.186H95.5568V142.216H92.5912V145.186Z" fill="#05B200"/>
<path d="M80.3995 145.186H77.1045V142.216H74.1389V138.917H77.1045V142.216H80.3995V145.186Z" fill="#05B200"/>
<path d="M61.6177 145.186H64.9128V142.216H61.6177V145.186Z" fill="#05B200"/>
<path d="M58.6521 142.216H55.6866V138.917H52.3915V135.947H49.4259V132.977H52.3915V135.947H55.6866V138.917H58.6521V142.216Z" fill="#05B200"/>
<path d="M21.7475 142.216H24.713V138.917H21.7475V142.216Z" fill="#05B200"/>
<path d="M354.878 138.917H357.844V135.947H354.878V138.917Z" fill="#05B200"/>
<path d="M138.722 138.917H142.017V135.947H138.722V138.917Z" fill="#05B200"/>
<path d="M40.1998 138.917H43.1653V135.947H40.1998V138.917Z" fill="#05B200"/>
<path d="M74.1389 135.947H77.1045V132.977H74.1389V135.947Z" fill="#05B200"/>
<path d="M18.4524 135.947H21.7475V132.977H18.4524V135.947Z" fill="#05B200"/>
<path d="M12.5213 135.947H15.4869V132.977H12.5213V135.947Z" fill="#05B200"/>
<path d="M370.365 132.977H373.33V129.678H370.365V132.977Z" fill="#05B200"/>
<path d="M289.965 132.977H293.26V129.678H289.965V132.977Z" fill="#05B200"/>
<path d="M27.6786 129.678H30.9736V126.708H27.6786V129.678Z" fill="#05B200"/>
<path d="M135.757 126.708H138.722V123.738H135.757V126.708Z" fill="#05B200"/>
<path d="M101.817 126.708H105.112V123.738H101.817V126.708Z" fill="#05B200"/>
<path d="M40.1998 126.708H43.1653V123.738H40.1998V126.708Z" fill="#05B200"/>
<path d="M323.904 123.738H327.2V120.438H323.904V123.738Z" fill="#05B200"/>
<path d="M86.3307 123.738H89.6257V120.438H86.3307V123.738Z" fill="#05B200"/>
<path d="M64.9128 123.738H67.8783V120.438H64.9128V123.738Z" fill="#05B200"/>
<path d="M342.357 120.438H345.652V117.469H342.357V120.438Z" fill="#05B200"/>
<path d="M92.5912 120.438H95.5568V117.469H92.5912V120.438Z" fill="#05B200"/>
<path d="M74.1389 120.438H77.1045V117.469H74.1389V120.438Z" fill="#05B200"/>
<path d="M52.3915 120.438H55.6866V117.469H52.3915V120.438Z" fill="#05B200"/>
<path d="M33.9392 120.438H37.2342V117.469H33.9392V120.438Z" fill="#05B200"/>
<path d="M18.4524 120.438H21.7475V117.469H18.4524V120.438Z" fill="#05B200"/>
<path d="M333.131 117.469H336.426V114.499H333.131V117.469Z" fill="#05B200"/>
<path d="M234.608 117.469H237.574V114.499H234.608V117.469Z" fill="#05B200"/>
<path d="M6.26067 117.469H9.22624V114.499H6.26067V117.469Z" fill="#05B200"/>
<path d="M30.9736 114.499H33.9392V111.199H30.9736V114.499Z" fill="#05B200"/>
<path d="M296.226 111.199H299.192V108.23H296.226V111.199Z" fill="#05B200"/>
<path d="M225.382 111.199H228.348V108.23H225.382V111.199Z" fill="#05B200"/>
<path d="M129.496 111.199H132.791V108.23H129.496V111.199Z" fill="#05B200"/>
<path d="M71.1734 111.199H74.1389V108.23H71.1734V111.199Z" fill="#05B200"/>
<path d="M284.034 108.23H287V104.93H284.034V108.23Z" fill="#05B200"/>
<path d="M138.722 108.23H142.017V104.93H138.722V108.23Z" fill="#05B200"/>
<path d="M58.6521 108.23H61.6177V104.93H58.6521V108.23Z" fill="#05B200"/>
<path d="M46.4604 108.23H49.4259V104.93H46.4604V108.23Z" fill="#05B200"/>
<path d="M24.713 108.23H27.6786V104.93H24.713V108.23Z" fill="#05B200"/>
<path d="M354.878 104.93H357.844V101.96H354.878V104.93Z" fill="#05B200"/>
<path d="M40.1998 104.93H43.1653V101.96H40.1998V104.93Z" fill="#05B200"/>
<path d="M55.6866 101.96H58.6521V98.9905H55.6866V101.96Z" fill="#05B200"/>
<path d="M21.7475 101.96H24.713V98.9905H21.7475V101.96Z" fill="#05B200"/>
<path d="M15.4869 101.96H18.4524V98.9905H15.4869V101.96Z" fill="#05B200"/>
<path d="M265.252 98.9905H268.547V95.6908H265.252V98.9905Z" fill="#05B200"/>
<path d="M37.2342 98.9905H40.1998V95.6908H37.2342V98.9905Z" fill="#05B200"/>
<path d="M327.2 95.6908H330.165V92.7211H327.2V95.6908Z" fill="#05B200"/>
<path d="M280.739 95.6908H284.034V92.7211H280.739V95.6908Z" fill="#05B200"/>
<path d="M33.9392 95.6909H30.9736V92.7212H27.6786V89.7515H30.9736V92.7212H33.9392V95.6909Z" fill="#05B200"/>
<path d="M6.26067 95.6908H9.22624V92.7211H6.26067V95.6908Z" fill="#05B200"/>
<path d="M314.678 92.7212H317.973V89.7515H314.678V92.7212Z" fill="#05B200"/>
<path d="M15.4869 92.7212H18.4524V89.7515H15.4869V92.7212Z" fill="#05B200"/>
<path d="M308.418 89.7514H311.713V86.4517H308.418V89.7514Z" fill="#05B200"/>
<path d="M191.443 89.7514H194.409V86.4517H191.443V89.7514Z" fill="#05B200"/>
<path d="M49.4259 89.7514H52.3915V86.4517H49.4259V89.7514Z" fill="#05B200"/>
<path d="M354.878 86.4518H357.844V83.4821H354.878V86.4518Z" fill="#05B200"/>
<path d="M299.192 86.4518H302.487V83.4821H299.192V86.4518Z" fill="#05B200"/>
<path d="M21.7475 86.4518H24.713V83.4821H21.7475V86.4518Z" fill="#05B200"/>
<path d="M3.29514 86.4518H6.26066V83.4821H3.29514V86.4518Z" fill="#05B200"/>
<path d="M289.965 83.482H293.26V80.5123H289.965V83.482Z" fill="#05B200"/>
<path d="M12.5213 83.482H15.4869V80.5123H12.5213V83.482Z" fill="#05B200"/>
<path d="M284.034 80.5123H287V77.2126H284.034V80.5123Z" fill="#05B200"/>
<path d="M175.956 80.5123H178.922V77.2126H175.956V80.5123Z" fill="#05B200"/>
<path d="M64.9128 80.5123H67.8783V77.2126H64.9128V80.5123Z" fill="#05B200"/>
<path d="M43.1653 80.5123H46.4604V77.2126H43.1653V80.5123Z" fill="#05B200"/>
<path d="M33.9392 80.5123H30.9736V77.2126H27.6786V74.2429H30.9736V77.2126H33.9392V80.5123Z" fill="#05B200"/>
<path d="M274.479 77.2126H277.774V74.2429H274.479V77.2126Z" fill="#05B200"/>
<path d="M15.4869 77.2126H12.5213V74.2429H9.22624V70.9432H12.5213V74.2429H15.4869V77.2126Z" fill="#05B200"/>
<path d="M284.034 70.9432H287V67.9735H284.034V70.9432Z" fill="#05B200"/>
<path d="M268.547 70.9432H271.513V67.9735H268.547V70.9432Z" fill="#05B200"/>
<path d="M265.252 67.9735H262.287V65.0038H259.321V61.7041H262.287V65.0038H265.252V67.9735Z" fill="#05B200"/>
<path d="M209.895 67.9735H212.861V65.0038H209.895V67.9735Z" fill="#05B200"/>
<path d="M18.4524 67.9735H21.7475V65.0037H18.4524V67.9735Z" fill="#05B200"/>
<path d="M3.29515 67.9735H6.26066V65.0037H3.29515V67.9735Z" fill="#05B200"/>
<path d="M225.382 65.0038H228.348V61.7041H225.382V65.0038Z" fill="#05B200"/>
<path d="M37.2342 65.0037L40.1998 65.0038V61.7041H37.2342V65.0037Z" fill="#05B200"/>
<path d="M12.5213 65.0037H15.4869V61.7041H12.5213V65.0037Z" fill="#05B200"/>
<path d="M243.835 61.7041H246.8V58.7344H243.835V61.7041Z" fill="#05B200"/>
<path d="M182.217 61.7041H185.182V58.7344H182.217V61.7041Z" fill="#05B200"/>
<path d="M172.661 61.7041H175.956V58.7344H172.661V61.7041Z" fill="#05B200"/>
<path d="M6.26067 61.7041H9.22625V58.7344H6.26067V61.7041Z" fill="#05B200"/>
<path d="M4.57764e-05 61.7041H3.29515V58.7344H4.6036e-05L4.57764e-05 61.7041Z" fill="#05B200"/>
<path d="M188.148 58.7343H191.443V55.7646H188.148V58.7343Z" fill="#05B200"/>
<path d="M40.1998 58.7343H43.1653V55.7646H40.1998V58.7343Z" fill="#05B200"/>
<path d="M30.9736 58.7343H33.9392V55.7646H30.9736V58.7343Z" fill="#05B200"/>
<path d="M209.895 55.7647H212.861V52.465H209.895V55.7647Z" fill="#05B200"/>
<path d="M197.374 55.7647H200.669V52.465H197.374V55.7647Z" fill="#05B200"/>
<path d="M256.026 52.4651H259.321V49.4954H256.026V52.4651Z" fill="#05B200"/>
<path d="M27.6786 52.4651H30.9736V49.4954H27.6786V52.4651Z" fill="#05B200"/>
<path d="M6.26067 52.4651H9.22625V49.4954H6.26067V52.4651Z" fill="#05B200"/>
<path d="M178.922 49.4954H182.217V43.226H178.922V49.4954Z" fill="#05B200"/>
<path d="M166.73 49.4953H169.696V46.5256H166.73V49.4953Z" fill="#05B200"/>
<path d="M154.209 49.4953H157.504V46.5255H154.209V49.4953Z" fill="#05B200"/>
<path d="M55.6866 49.4953H58.6521V46.5255H55.6866V49.4953Z" fill="#05B200"/>
<path d="M15.4869 49.4953H18.4524V46.5255H15.4869V49.4953Z" fill="#05B200"/>
<path d="M4.57764e-05 49.4953H3.29515V46.5255H4.6036e-05L4.57764e-05 49.4953Z" fill="#05B200"/>
<path d="M228.348 46.5257H231.313V43.226H228.348V46.5257Z" fill="#05B200"/>
<path d="M21.7475 46.5256H24.713V43.226H21.7475V46.5256Z" fill="#05B200"/>
<path d="M243.835 43.2259H246.8V40.2561H243.835V43.2259Z" fill="#05B200"/>
<path d="M222.087 40.2561H225.382V36.9565H222.087V40.2561Z" fill="#05B200"/>
<path d="M138.722 40.2561H142.017V36.9565H138.722V40.2561Z" fill="#05B200"/>
<path d="M9.22624 40.2561H12.5213V36.9565H9.22624V40.2561Z" fill="#05B200"/>
<path d="M3.29515 36.9565H6.26066V33.9868H3.29515V36.9565Z" fill="#05B200"/>
<path d="M172.661 33.9868H175.956V31.0171H172.661V33.9868Z" fill="#05B200"/>
<path d="M157.504 33.9868H160.47V31.0171H157.504V33.9868Z" fill="#05B200"/>
<path d="M206.6 31.0171H209.895V27.7174H206.6V31.0171Z" fill="#05B200"/>
<path d="M135.757 31.0171H138.722V27.7174H135.757V31.0171Z" fill="#05B200"/>
<path d="M126.53 31.0171H129.496V27.7174H126.53V31.0171Z" fill="#05B200"/>
<path d="M37.2342 31.0171H40.1998V27.7174H37.2342V31.0171Z" fill="#05B200"/>
<path d="M27.6786 31.0171H30.9736V27.7174H27.6786V31.0171Z" fill="#05B200"/>
<path d="M18.4524 31.0171H21.7475V27.7174H18.4524V31.0171Z" fill="#05B200"/>
<path d="M12.5213 31.0171H9.22625V27.7174H6.26067V24.7476H9.22625V27.7174H12.5213V31.0171Z" fill="#05B200"/>
<path d="M117.304 27.7174H120.27V24.7477H117.304V27.7174Z" fill="#05B200"/>
<path d="M197.374 24.7478H200.669V21.778H197.374V24.7478Z" fill="#05B200"/>
<path d="M154.209 24.7478H157.504V21.778H154.209V24.7478Z" fill="#05B200"/>
<path d="M86.3307 24.7478H89.6257V21.778H86.3307V24.7478Z" fill="#05B200"/>
<path d="M92.5912 21.7778H95.5568V18.4781H92.5912V21.7778Z" fill="#05B200"/>
<path d="M21.7475 21.7778H24.713V18.4781H21.7475V21.7778Z" fill="#05B200"/>
<path d="M3.29515 21.7778H6.26066L6.26067 18.4781H3.29515V21.7778Z" fill="#05B200"/>
<path d="M225.382 18.4782H228.348V15.5085H225.382V18.4782Z" fill="#05B200"/>
<path d="M18.4524 18.4782H15.4869V15.5086H12.5213V12.5388H15.4869V15.5086H18.4524V18.4782Z" fill="#05B200"/>
<path d="M6.26067 12.5388H9.22624V9.23914H6.26067V12.5388Z" fill="#05B200"/>
<path d="M253.061 2.96972H256.026V2.59199e-07L253.061 0V2.96972Z" fill="#05B200"/>
<path d="M9.22624 2.96973H12.5213V2.88099e-07L9.22624 0V2.96973Z" fill="#05B200"/>
</g>
<defs>
<clipPath id="clip0_8522_1416">
<rect width="430" height="535" fill="white"/>
</clipPath>
</defs>
</svg>
